<svg width="520" height="516" viewBox="0 0 520 516" fill="none" xmlns="http://www.w3.org/2000/svg">
<mask id="mask0_1212_198" style="mask-type:luminance" maskUnits="userSpaceOnUse" x="0" y="0" width="520" height="516">
<path d="M0 0.396362H520V515.604H0V0.396362Z" fill="white"/>
</mask>
<g mask="url(#mask0_1212_198)">
<path d="M282.923 204.729C282.923 204.729 309.432 210.72 312.192 229.988C315.188 250.9 309.216 293.004 309.961 300.006C310.704 307.009 310.803 312.738 310.803 312.738L364.637 341.28L353.674 355.683C353.674 355.683 305.869 353.81 293.223 344.597C280.576 335.384 277.973 323.96 278.345 313.641C278.717 303.323 278.311 246.94 278.311 246.94L282.923 204.729Z" fill="#C17560"/>
<path d="M301.243 242.649C301.373 242.742 299.339 245.643 297.154 249.412C294.955 253.174 293.44 256.37 293.294 256.306C293.229 256.277 293.524 255.44 294.11 254.128C294.694 252.817 295.581 251.04 296.685 249.144C297.788 247.249 298.897 245.597 299.749 244.44C300.602 243.281 301.185 242.608 301.243 242.649Z" fill="#7C4236"/>
<path d="M443.075 338.036C443.075 350.055 435.915 359.797 427.083 359.797C423.452 359.797 413.934 359.758 413.934 359.758C410.088 355.784 411.091 345.114 411.091 338.036C411.091 331.488 409.067 320.391 412.43 316.403C412.43 316.403 423.062 316.275 427.083 316.275C435.915 316.275 443.075 326.017 443.075 338.036Z" fill="#FF735D"/>
<mask id="mask1_1212_198" style="mask-type:luminance" maskUnits="userSpaceOnUse" x="410" y="316" width="34" height="44">
<path d="M410.487 316.274H443.075V359.798H410.487V316.274Z" fill="white"/>
</mask>
<g mask="url(#mask1_1212_198)">
<g opacity="0.300003">
<path d="M443.075 338.036C443.075 350.055 435.915 359.797 427.083 359.797C423.453 359.797 413.934 359.758 413.934 359.758C410.089 355.784 411.091 345.114 411.091 338.036C411.091 331.488 409.067 320.391 412.431 316.403C412.431 316.403 423.063 316.275 427.083 316.275C435.915 316.275 443.075 326.017 443.075 338.036Z" fill="black"/>
</g>
</g>
<path d="M426.26 337.997C426.26 350.016 420.742 359.758 413.934 359.758C407.128 359.758 401.609 350.016 401.609 337.997C401.609 325.978 407.128 316.235 413.934 316.235C420.742 316.235 426.26 325.978 426.26 337.997Z" fill="#FF735D"/>
<path d="M421.191 345.524H376.444C374.494 345.524 372.912 343.958 372.912 342.026V337.729C372.912 335.797 374.494 334.231 376.444 334.231H421.191C423.141 334.231 424.722 335.797 424.722 337.729V342.026C424.722 343.958 423.141 345.524 421.191 345.524Z" fill="#FF735D"/>
<path d="M417.025 327.931C415.842 325.868 412.994 322.058 412.994 322.058C408.685 317.893 404.862 321.527 404.862 321.527C402.739 319.793 400.161 320.426 398.398 322.371C393.531 319.881 390.893 325.727 390.893 325.727C381.507 325.195 383.578 334.23 383.578 334.23C383.578 334.23 386.225 334.447 386.247 334.661C386.605 338.134 381.632 344.839 381.632 344.839L370.97 355.683L388.14 355.413C391.135 356.467 393.886 356.213 396.105 353.134C400.831 356.576 403.055 352.307 403.055 352.307C407.504 355.268 410.111 350.793 410.111 350.793C410.111 350.793 414.586 352.917 415.98 344.453C416.487 341.364 418.207 329.994 417.025 327.931Z" fill="#C17560"/>
<path d="M393.086 344.197C393.011 344.163 393.503 343.032 394.192 341.172C394.88 339.313 395.742 336.708 396.401 333.766C396.56 333.036 396.664 332.322 396.597 331.652C396.514 330.979 396.322 330.339 396.02 329.791C395.41 328.689 394.464 327.95 393.648 327.409C391.983 326.344 390.846 325.813 390.892 325.727C390.909 325.694 391.203 325.796 391.721 326.017C392.236 326.241 392.982 326.57 393.855 327.09C394.715 327.605 395.753 328.346 396.455 329.551C396.804 330.152 397.026 330.852 397.124 331.598C397.208 332.356 397.094 333.128 396.931 333.878C396.263 336.862 395.333 339.473 394.549 341.311C393.763 343.15 393.146 344.225 393.086 344.197Z" fill="#7C4236"/>
<path d="M402.322 342.009C402.238 341.979 402.679 340.797 403.12 338.83C403.339 337.785 403.585 336.614 403.851 335.342C404.138 334.035 404.516 332.602 404.549 331.101C404.576 329.614 403.981 328.241 403.223 327.19C402.459 326.122 401.555 325.313 400.807 324.631C399.273 323.298 398.342 322.43 398.398 322.37C398.445 322.323 399.449 323.075 401.056 324.344C401.843 324.997 402.796 325.789 403.627 326.9C404.452 327.998 405.119 329.471 405.091 331.107C405.054 332.711 404.649 334.154 404.337 335.455C404.017 336.752 403.762 337.936 403.492 338.921C403.224 339.907 402.94 340.687 402.722 341.214C402.503 341.741 402.355 342.021 402.322 342.009Z" fill="#7C4236"/>
<path d="M410.136 340.07C410.064 340.048 410.365 338.837 410.908 336.898C411.198 335.88 411.524 334.739 411.876 333.502C412.214 332.238 412.519 330.798 412.21 329.352C411.906 327.905 411.103 326.667 410.232 325.707C409.353 324.741 408.386 324.029 407.558 323.466C405.88 322.359 404.775 321.749 404.821 321.672C404.838 321.64 405.131 321.757 405.644 322.002C406.156 322.25 406.892 322.618 407.767 323.147C408.635 323.681 409.655 324.377 410.6 325.372C411.533 326.36 412.408 327.666 412.74 329.243C413.077 330.833 412.726 332.358 412.358 333.634C411.971 334.92 411.589 336.049 411.274 337.008C410.637 338.92 410.208 340.091 410.136 340.07Z" fill="#7C4236"/>
<path d="M310.958 312.785C311.047 312.94 307.589 314.481 304.287 317.644C300.952 320.772 299.244 324.125 299.091 324.031C299.035 324.003 299.383 323.133 300.173 321.839C300.959 320.547 302.228 318.856 303.912 317.256C305.601 315.659 307.362 314.478 308.701 313.759C310.039 313.034 310.932 312.727 310.958 312.785Z" fill="#7C4236"/>
<path d="M382.814 339.654C382.814 351.673 375.654 361.415 366.822 361.415C363.191 361.415 353.674 361.376 353.674 361.376C349.827 357.402 350.83 346.733 350.83 339.654C350.83 333.106 348.806 322.009 352.169 318.02C352.169 318.02 362.801 317.893 366.822 317.893C375.654 317.893 382.814 327.635 382.814 339.654Z" fill="#FF735D"/>
<mask id="mask2_1212_198" style="mask-type:luminance" maskUnits="userSpaceOnUse" x="350" y="317" width="33" height="45">
<path d="M350.226 317.892H382.814V361.416H350.226V317.892Z" fill="white"/>
</mask>
<g mask="url(#mask2_1212_198)">
<g opacity="0.300003">
<path d="M382.814 339.654C382.814 351.673 375.654 361.415 366.822 361.415C363.191 361.415 353.674 361.376 353.674 361.376C349.827 357.402 350.83 346.733 350.83 339.654C350.83 333.105 348.806 322.009 352.169 318.02C352.169 318.02 362.801 317.892 366.822 317.892C375.654 317.892 382.814 327.635 382.814 339.654Z" fill="black"/>
</g>
</g>
<path d="M365.999 339.615C365.999 351.633 360.481 361.376 353.674 361.376C346.866 361.376 341.348 351.633 341.348 339.615C341.348 327.596 346.866 317.853 353.674 317.853C360.481 317.853 365.999 327.596 365.999 339.615Z" fill="#FF735D"/>
<path d="M364.197 339.615C364.187 339.615 364.176 339.531 364.162 339.367C364.149 339.172 364.134 338.934 364.114 338.644C364.098 338.007 364.012 337.071 363.885 335.871C363.793 335.27 363.692 334.607 363.582 333.885C363.411 333.171 363.298 332.379 363.046 331.559C362.616 329.904 361.968 328.048 360.926 326.167C360.383 325.241 359.778 324.286 358.982 323.429C358.225 322.543 357.255 321.776 356.139 321.236C355.024 320.699 353.707 320.465 352.408 320.71C351.106 320.952 349.887 321.666 348.857 322.611C346.77 324.516 345.369 327.258 344.434 330.183C343.499 333.128 343.074 336.337 343.046 339.612C343.074 342.889 343.498 346.099 344.434 349.044C345.369 351.97 346.77 354.712 348.857 356.618C349.887 357.563 351.107 358.277 352.408 358.52C353.708 358.764 355.025 358.53 356.14 357.993C357.255 357.453 358.226 356.686 358.983 355.799C359.778 354.942 360.384 353.987 360.926 353.061C361.969 351.18 362.616 349.324 363.046 347.669C363.298 346.85 363.411 346.058 363.582 345.344C363.692 344.621 363.793 343.959 363.885 343.358C364.012 342.157 364.098 341.222 364.114 340.585C364.134 340.294 364.149 340.057 364.162 339.862C364.176 339.698 364.187 339.615 364.197 339.615C364.206 339.615 364.213 339.698 364.217 339.862C364.219 340.058 364.221 340.296 364.224 340.588C364.242 341.228 364.191 342.169 364.095 343.381C364.03 343.983 363.933 344.653 363.837 345.387C363.68 346.109 363.58 346.912 363.34 347.745C362.933 349.423 362.304 351.312 361.262 353.244C360.719 354.195 360.109 355.179 359.296 356.074C358.521 356.996 357.517 357.812 356.333 358.394C355.153 358.975 353.727 359.241 352.32 358.983C350.911 358.729 349.606 357.969 348.521 356.985C346.325 354.993 344.891 352.185 343.928 349.202C342.967 346.199 342.532 342.94 342.504 339.612C342.533 336.286 342.968 333.027 343.929 330.025C344.892 327.043 346.326 324.235 348.521 322.244C349.605 321.26 350.909 320.5 352.32 320.246C353.726 319.988 355.152 320.254 356.333 320.835C357.516 321.417 358.52 322.232 359.295 323.155C360.108 324.049 360.719 325.033 361.262 325.984C362.304 327.916 362.932 329.805 363.34 331.485C363.58 332.316 363.68 333.119 363.837 333.841C363.933 334.575 364.029 335.245 364.095 335.848C364.191 337.06 364.242 338.001 364.224 338.641C364.221 338.933 364.219 339.171 364.217 339.367C364.213 339.531 364.206 339.615 364.197 339.615Z" fill="#1A2E35"/>
<path d="M353.311 341.847L352.569 341.9L352.665 343.22L351.638 343.293L351.541 341.973L349.089 342.147L349.018 341.167L350.875 337.024L351.982 336.946L350.265 340.872L351.487 340.784L351.403 339.606L352.398 339.536L352.483 340.713L353.225 340.661L353.311 341.847Z" fill="#1A2E35"/>
<path d="M355.301 341.127L354.861 341.828L354.95 343.058L353.936 343.129L353.454 336.462L354.468 336.39L354.741 340.164L356.084 338.118L357.293 338.031L355.985 340.185L357.774 342.857L356.545 342.944L355.301 341.127Z" fill="#1A2E35"/>
<path d="M242.963 74.3157C248.016 70.394 248.34 62.3918 244.894 57.0254C241.449 51.659 235.205 48.6316 228.943 47.2375C219.251 45.0808 208.143 46.6378 201.131 53.6095C194.12 60.5813 193.253 73.5831 200.934 79.8233C196.503 80.1664 191.824 80.5951 188.216 83.168C184.609 85.741 182.753 91.2568 185.585 94.6499C188.812 98.5161 195.011 97.0663 199.742 95.2795C196.632 97.2291 196.146 101.936 198.183 104.974C200.222 108.01 204.103 109.442 207.784 109.398C211.464 109.356 215.003 108.049 218.378 106.596" fill="#1A2E35"/>
<path d="M227.493 75.812C229.321 73.6429 231.193 71.443 233.6 69.9273C236.007 68.4126 239.075 67.6624 241.752 68.6351C243.012 69.0926 244.214 70.0427 244.444 71.3523C244.675 72.662 243.465 74.1633 242.163 73.8397L241.842 74.0324C238.474 76.1273 235.064 78.1551 231.615 80.116C230.747 80.6096 229.848 81.1093 228.855 81.2412C227.863 81.3731 226.743 81.0537 226.208 80.2139C225.327 78.8259 226.433 77.0711 227.493 75.812Z" fill="#FF735D"/>
<path d="M220.356 84.4499C232.111 74.2066 246.383 69.5378 261.87 71.8119C270.606 73.0958 273.913 75.4802 279.908 78.184C285.903 80.8878 291.009 85.1506 293.874 91.0271C297.278 98.0071 299.844 105.62 299.418 113.36C298.978 121.311 298.533 129.314 296.632 137.052C294.731 144.788 291.268 152.326 285.551 157.924L264.855 158.094C253.681 156.65 234.573 167.582 224.167 163.298C213.761 159.016 207.003 139.803 205.594 128.266C203.715 112.868 208.601 94.6933 220.356 84.4499Z" fill="#1A2E35"/>
<path d="M259.033 193.49C260.065 186.473 261.289 177.665 261.285 177.698C261.285 177.698 277.988 178.593 285.994 158.503C289.975 148.512 293.258 131.415 295.486 117.342C297.492 104.673 289.491 85.6656 273.735 83.0298L266.862 81.0762L238.28 87.2494C234.374 86.8094 230.776 89.404 230.001 93.2237L213.712 187.475L226.157 215.918L256.968 204.093L259.033 193.49Z" fill="#C17560"/>
<path d="M255.269 148.465C255.598 147.391 256.375 146.52 257.273 145.983C259.067 144.906 261.384 145.152 262.873 146.577C264.364 148.002 264.934 150.517 264.251 152.657C263.094 153.788 261.505 154.42 259.883 154.295C259.631 154.275 259.38 154.243 259.13 154.196C257.924 153.967 256.758 153.359 255.98 152.323C255.202 151.286 254.863 149.79 255.269 148.465Z" fill="#7C4236"/>
<path d="M286.323 132.963C286.056 134.385 284.622 135.334 283.119 135.086C281.619 134.839 280.614 133.489 280.88 132.067C281.146 130.646 282.581 129.695 284.08 129.942C285.584 130.189 286.589 131.542 286.323 132.963Z" fill="#1A2E35"/>
<path d="M289.509 123.581C289.097 123.856 287.39 121.91 284.488 121.278C281.598 120.607 279.137 121.617 278.902 121.196C278.781 121.006 279.264 120.453 280.339 119.988C281.401 119.523 283.103 119.218 284.908 119.622C286.712 120.03 288.085 121.025 288.808 121.89C289.547 122.765 289.709 123.462 289.509 123.581Z" fill="#1A2E35"/>
<path d="M266.905 143.248C266.928 143.082 268.8 143.17 271.804 143.443C272.562 143.529 273.297 143.537 273.534 143.064C273.827 142.573 273.695 141.714 273.526 140.781C273.228 138.852 272.917 136.829 272.588 134.711C271.331 126.085 270.595 119.058 270.945 119.012C271.297 118.964 272.602 125.917 273.86 134.543C274.152 136.666 274.433 138.69 274.698 140.625C274.792 141.522 275.061 142.574 274.436 143.591C274.114 144.096 273.482 144.373 272.978 144.396C272.471 144.435 272.053 144.351 271.681 144.293C268.706 143.802 266.879 143.414 266.905 143.248Z" fill="#1A2E35"/>
<path d="M261.284 177.697C261.284 177.697 246.942 175.489 234.803 164.064C234.803 164.064 239.066 180.149 260.54 182.829L261.284 177.697Z" fill="#7C4236"/>
<path d="M257.923 143.358C258.4 143.434 257.707 146.555 259.906 149.362C262.097 152.176 265.532 152.563 265.46 153.005C265.46 153.21 264.577 153.446 263.152 153.173C261.751 152.915 259.821 152.025 258.476 150.309C257.135 148.589 256.835 146.622 257.015 145.319C257.187 143.988 257.712 143.292 257.923 143.358Z" fill="#1A2E35"/>
<path d="M290.205 117.735C289.561 118.329 287.444 117.371 284.801 117.014C282.17 116.573 279.856 116.86 279.428 116.103C279.243 115.738 279.679 115.117 280.737 114.609C281.781 114.102 283.459 113.787 285.273 114.06C287.084 114.337 288.586 115.131 289.421 115.923C290.272 116.721 290.493 117.441 290.205 117.735Z" fill="#1A2E35"/>
<path d="M253.406 126.634C253.093 128.047 254.04 129.473 255.523 129.824C257.002 130.176 258.458 129.318 258.771 127.907C259.084 126.495 258.136 125.066 256.658 124.716C255.175 124.364 253.719 125.223 253.406 126.634Z" fill="#1A2E35"/>
<path d="M250.081 115.975C250.353 116.387 252.689 115.253 255.611 115.789C258.537 116.285 260.406 118.165 260.789 117.867C260.974 117.739 260.747 117.042 259.939 116.2C259.144 115.362 257.696 114.425 255.874 114.102C254.051 113.782 252.397 114.169 251.392 114.688C250.366 115.208 249.944 115.787 250.081 115.975Z" fill="#1A2E35"/>
<path d="M253.391 106.971C253.845 107.732 256.227 107.46 258.943 107.92C261.674 108.295 263.87 109.269 264.525 108.678C264.818 108.385 264.578 107.661 263.69 106.856C262.816 106.057 261.256 105.25 259.384 104.961C257.511 104.676 255.787 104.978 254.72 105.482C253.636 105.983 253.196 106.604 253.391 106.971Z" fill="#1A2E35"/>
<path d="M227.755 129.135C228.099 127.583 227.109 123.528 225.617 122.949C221.632 121.404 214.118 120.095 211.72 130.466C208.443 144.643 223.486 144.979 223.605 144.579C223.698 144.265 226.567 134.493 227.755 129.135Z" fill="#C17560"/>
<path d="M220.855 138.504C220.803 138.444 220.565 138.62 220.101 138.716C219.646 138.809 218.909 138.778 218.228 138.33C216.842 137.438 216.119 134.771 216.642 132.201C216.903 130.901 217.459 129.735 218.156 128.822C218.833 127.883 219.677 127.312 220.47 127.352C221.266 127.35 221.701 127.924 221.784 128.362C221.885 128.802 221.728 129.065 221.799 129.106C221.83 129.151 222.16 128.938 222.181 128.327C222.187 128.031 222.096 127.66 221.822 127.31C221.543 126.956 221.071 126.7 220.527 126.636C219.406 126.462 218.181 127.242 217.415 128.244C216.589 129.237 215.932 130.542 215.638 132C215.069 134.878 215.927 137.885 217.859 138.948C218.805 139.436 219.715 139.326 220.225 139.09C220.75 138.841 220.898 138.541 220.855 138.504Z" fill="#7C4236"/>
<path d="M225.02 122.894L228.064 127.27C246.434 114.824 283.712 82.2346 281.608 84.1955C281.608 84.1955 271.479 77.9883 259.354 78.0491C247.228 78.1089 223.882 80.2964 221.927 94.1339C219.972 107.972 225.02 122.894 225.02 122.894Z" fill="#1A2E35"/>
<path d="M204.542 116.293C204.519 116.281 204.643 116.009 204.902 115.5C205.164 114.993 205.603 114.269 206.264 113.404C207.584 111.683 209.932 109.445 213.429 107.657C216.889 105.799 221.463 104.57 226.56 103.851C231.655 103.081 237.308 102.762 243.038 101.362C248.791 100.052 254.063 98.0132 258.644 95.7731C263.215 93.5021 267.094 91.0044 270.18 88.6921C273.268 86.3768 275.582 84.2716 277.152 82.792C277.878 82.083 278.468 81.5081 278.932 81.0547C279.343 80.66 279.567 80.4601 279.586 80.4776C279.606 80.4952 279.419 80.728 279.042 81.1567C278.661 81.5792 278.117 82.2211 277.359 82.996C275.846 84.5457 273.573 86.722 270.504 89.1084C267.436 91.4917 263.553 94.0585 258.953 96.3862C254.347 98.681 249.025 100.762 243.21 102.085C237.406 103.502 231.716 103.801 226.658 104.529C221.589 105.208 217.098 106.363 213.67 108.125C210.21 109.82 207.86 111.947 206.492 113.584C205.126 115.241 204.612 116.333 204.542 116.293Z" fill="#375A64"/>
<path d="M208.373 119.236C208.373 119.236 208.423 118.039 209.456 116.198C210.454 114.366 212.605 112.007 216.013 110.343C219.404 108.604 223.943 107.929 228.857 107.633C233.787 107.371 239.169 106.886 244.634 105.373C250.088 103.877 255.105 101.805 259.362 99.3866C263.637 96.9939 267.201 94.3674 270.011 91.9634C272.849 89.5801 274.858 87.3472 276.28 85.8428C276.914 85.1102 277.429 84.5125 277.839 84.0375C278.203 83.6295 278.404 83.4223 278.425 83.4378C278.446 83.4532 278.284 83.6913 277.959 84.1302C277.576 84.63 277.094 85.2585 276.503 86.0313C275.141 87.5996 273.179 89.9036 270.363 92.3581C267.573 94.8332 264.006 97.5318 259.704 99.9821C255.419 102.459 250.351 104.578 244.831 106.091C239.31 107.623 233.812 108.095 228.902 108.316C224.002 108.575 219.565 109.188 216.245 110.816C212.901 112.376 210.758 114.604 209.709 116.344C208.624 118.092 208.469 119.269 208.373 119.236Z" fill="#375A64"/>
<path d="M168.406 249.68C168.987 250.793 168.987 264.52 171.608 279.922C174.23 295.324 187.562 326.763 187.562 326.763L184.807 348.104L300.623 361.209L286.685 324.264L288.214 289.469C288.214 289.469 297.077 279.738 293.332 253.762C289.587 227.786 284.166 205.484 284.166 205.484L274.853 201.548L262.958 197.178L218.516 183.391L194.184 180.537L170.86 228.158L168.406 249.68Z" fill="#C17560"/>
<path d="M175.795 296.463C175.795 296.463 184.321 290.486 204.81 290.045C225.299 289.603 285.661 299.665 285.661 299.665L287.816 291.799C287.816 291.799 302.429 269.753 291.783 244.328C280.434 217.22 284.315 204.873 284.315 204.873L274.854 201.547C274.854 201.547 265.371 220.057 257.289 224.542C248.172 229.602 231.397 229.365 216.613 210.168C206.213 196.664 206.037 181.492 206.037 181.492L194.915 180.537C194.915 180.537 192.338 209.065 186.77 222.305C181.203 235.543 167.126 263.237 167.126 263.237C167.126 263.237 173.06 292.73 175.795 296.463Z" fill="#69B99D"/>
<path d="M183.593 348.146C182.845 350.002 170.86 381.915 169.361 407.89C167.862 433.866 167.488 466.337 173.106 487.581H239.399C239.399 487.581 244.922 440.625 246.795 438.399C248.668 436.172 250.54 435.469 251.29 443.985C252.039 452.499 249.886 487.581 249.886 487.581H314.321C314.321 487.581 316.179 429.189 314.68 414.828C313.732 405.732 310.678 390.781 308.567 381.045C307.247 374.957 305.438 368.988 303.146 363.191L295.635 344.196L183.593 348.146Z" fill="#1A2E35"/>
<path d="M300.623 356.811C300.623 356.821 300.517 356.831 300.309 356.841C300.071 356.85 299.768 356.861 299.387 356.875C298.54 356.894 297.354 356.92 295.845 356.953C292.769 356.993 288.318 357.117 282.822 357.309C271.828 357.683 256.659 358.603 239.912 359.764C223.158 360.925 207.973 361.785 196.969 362.063C191.467 362.206 187.014 362.273 183.937 362.249C182.428 362.239 181.241 362.231 180.394 362.225C180.013 362.218 179.709 362.211 179.472 362.206C179.264 362.198 179.158 362.19 179.158 362.181C179.158 362.172 179.264 362.161 179.472 362.151C179.709 362.143 180.013 362.131 180.392 362.117C181.24 362.1 182.427 362.073 183.935 362.04C187.01 362 191.46 361.875 196.957 361.684C207.951 361.309 223.122 360.39 239.874 359.229C256.622 358.068 271.805 357.207 282.81 356.93C288.311 356.787 292.765 356.72 295.843 356.743C297.353 356.754 298.54 356.761 299.387 356.767C299.768 356.775 300.071 356.782 300.309 356.787C300.517 356.794 300.623 356.802 300.623 356.811Z" fill="#375A64"/>
<path d="M190.545 362.181C190.554 362.183 190.538 362.293 190.498 362.506C190.45 362.746 190.388 363.056 190.31 363.445C190.125 364.305 189.865 365.511 189.534 367.048C189.182 368.609 188.765 370.52 188.345 372.753C187.918 374.984 187.372 377.514 186.917 380.337C186.674 381.747 186.42 383.222 186.155 384.759C185.893 386.297 185.684 387.907 185.432 389.568C184.905 392.888 184.506 396.458 184.049 400.209C183.244 407.722 182.594 416.008 182.323 424.724C182.093 433.444 182.269 441.755 182.663 449.301C182.919 453.071 183.121 456.657 183.482 459.998C183.65 461.671 183.773 463.29 183.96 464.838C184.15 466.386 184.333 467.872 184.508 469.291C184.822 472.133 185.26 474.682 185.587 476.929C185.903 479.18 186.241 481.105 186.531 482.679C186.8 484.227 187.011 485.442 187.161 486.308C187.223 486.701 187.272 487.013 187.31 487.255C187.342 487.468 187.353 487.578 187.344 487.581C187.334 487.583 187.305 487.475 187.256 487.265C187.204 487.026 187.138 486.717 187.054 486.329C186.88 485.467 186.635 484.257 186.323 482.716C186.002 481.148 185.633 479.225 185.288 476.977C184.932 474.731 184.467 472.182 184.128 469.34C183.942 467.92 183.747 466.433 183.545 464.885C183.346 463.335 183.213 461.715 183.035 460.041C182.654 456.696 182.434 453.105 182.165 449.329C181.742 441.771 181.551 433.445 181.781 424.709C182.052 415.977 182.719 407.676 183.553 400.154C184.024 396.398 184.441 392.826 184.988 389.504C185.25 387.84 185.469 386.23 185.743 384.692C186.02 383.155 186.286 381.68 186.541 380.27C187.019 377.448 187.592 374.92 188.049 372.693C188.497 370.464 188.944 368.556 189.328 367.002C189.701 365.474 189.995 364.275 190.204 363.421C190.304 363.036 190.383 362.73 190.445 362.493C190.502 362.284 190.535 362.179 190.545 362.181Z" fill="white"/>
<path d="M184.807 362.83C184.816 362.833 184.801 362.942 184.761 363.153C184.713 363.393 184.652 363.701 184.575 364.089C184.392 364.944 184.134 366.144 183.806 367.672C183.458 369.225 183.043 371.127 182.633 373.35C182.216 375.571 181.674 378.087 181.237 380.898C181.001 382.3 180.754 383.77 180.497 385.299C180.24 386.83 180.046 388.433 179.803 390.087C179.297 393.393 178.923 396.945 178.496 400.68C177.749 408.158 177.176 416.406 176.989 425.078C176.845 433.754 177.101 442.019 177.561 449.522C177.845 453.27 178.082 456.835 178.462 460.157C178.641 461.819 178.774 463.429 178.972 464.967C179.171 466.506 179.36 467.983 179.542 469.394C179.872 472.219 180.317 474.754 180.65 476.988C180.974 479.225 181.316 481.141 181.605 482.705C181.873 484.245 182.084 485.454 182.235 486.314C182.297 486.705 182.347 487.015 182.386 487.256C182.416 487.469 182.427 487.579 182.418 487.581C182.41 487.583 182.379 487.477 182.331 487.267C182.279 487.028 182.212 486.721 182.128 486.336C181.953 485.479 181.709 484.275 181.397 482.743C181.076 481.183 180.704 479.271 180.351 477.036C179.99 474.805 179.517 472.271 179.163 469.445C178.97 468.034 178.768 466.556 178.557 465.017C178.347 463.477 178.204 461.867 178.016 460.203C177.615 456.877 177.36 453.308 177.063 449.554C176.575 442.041 176.303 433.76 176.447 425.068C176.636 416.38 177.225 408.117 178 400.628C178.441 396.889 178.832 393.332 179.358 390.024C179.611 388.369 179.816 386.765 180.085 385.234C180.354 383.704 180.613 382.235 180.859 380.832C181.322 378.022 181.891 375.508 182.337 373.29C182.776 371.071 183.221 369.174 183.6 367.627C183.971 366.107 184.262 364.914 184.469 364.064C184.568 363.682 184.647 363.377 184.707 363.141C184.764 362.934 184.797 362.828 184.807 362.83Z" fill="white"/>
<path d="M295.667 345.524C295.633 345.538 295.352 344.961 294.87 343.903C294.365 342.762 293.691 341.242 292.875 339.396C291.208 335.576 288.934 330.274 286.436 324.368L286.417 324.323L286.415 324.275C286.405 324.027 286.393 323.76 286.382 323.491C286.108 316.914 285.89 310.959 285.76 306.648C285.708 304.557 285.665 302.833 285.633 301.541C285.63 300.99 285.628 300.532 285.626 300.151C285.63 299.833 285.642 299.665 285.66 299.665C285.679 299.664 285.704 299.83 285.735 300.147C285.765 300.526 285.801 300.983 285.843 301.533C285.919 302.823 286.02 304.543 286.143 306.632C286.371 310.939 286.649 316.892 286.924 323.468C286.934 323.737 286.946 324.005 286.956 324.253L286.935 324.16C289.428 330.069 291.645 335.395 293.222 339.252C293.975 341.124 294.595 342.667 295.061 343.824C295.484 344.906 295.701 345.51 295.667 345.524Z" fill="#7C4236"/>
<path d="M283.687 250.335C283.657 250.48 279.284 249.749 273.92 248.702C268.552 247.655 264.227 246.689 264.256 246.543C264.285 246.397 268.657 247.129 274.024 248.176C279.389 249.223 283.716 250.189 283.687 250.335Z" fill="white"/>
<path d="M136.964 434.761C136.964 445.56 128.127 454.317 117.227 454.317C106.325 454.317 97.4884 445.56 97.4884 434.761C97.4884 423.96 106.325 415.204 117.227 415.204C128.127 415.204 136.964 423.96 136.964 434.761Z" fill="#FF735D"/>
<mask id="mask3_1212_198" style="mask-type:luminance" maskUnits="userSpaceOnUse" x="97" y="415" width="40" height="40">
<path d="M97.4884 415.205H136.964V454.316H97.4884V415.205Z" fill="white"/>
</mask>
<g mask="url(#mask3_1212_198)">
<g opacity="0.300003">
<path d="M136.964 434.761C136.964 445.561 128.127 454.317 117.227 454.317C106.325 454.317 97.4885 445.561 97.4885 434.761C97.4885 423.96 106.325 415.205 117.227 415.205C128.127 415.205 136.964 423.96 136.964 434.761Z" fill="black"/>
</g>
</g>
<path d="M143.25 434.761C143.25 445.56 134.413 454.317 123.513 454.317C112.612 454.317 103.775 445.56 103.775 434.761C103.775 423.96 112.612 415.204 123.513 415.204C134.413 415.204 143.25 423.96 143.25 434.761Z" fill="#FF735D"/>
<path d="M112.456 398.401C112.456 399.136 112.438 411.909 110.214 419.07C107.99 426.231 106.878 433.576 107.805 436.331C108.731 439.085 119.109 449.184 121.519 450.102C123.929 451.02 145.056 449.184 145.056 449.184L152.283 424.762C152.283 424.762 143.943 413.01 140.423 406.767C136.902 400.524 133.718 393.256 134.105 388.903C134.492 384.549 112.456 398.401 112.456 398.401Z" fill="#C17560"/>
<path d="M160.466 436.632C160.466 447.433 151.629 456.188 140.728 456.188C129.827 456.188 120.99 447.433 120.99 436.632C120.99 425.832 129.827 417.076 140.728 417.076C151.629 417.076 160.466 425.832 160.466 436.632Z" fill="#FF735D"/>
<path d="M183.967 180.774C178.127 181.515 172.475 183.439 167.54 186.62C159.499 191.804 149.781 201.76 146.303 220.406C139.98 254.31 136.632 284.16 132.913 291.899C129.194 299.638 121.383 314.379 120.639 329.857C119.896 345.335 112.457 398.401 112.457 398.401H131.798C131.798 398.401 149.651 343.491 156.346 325.803C163.041 308.114 161.3 307.68 165.763 291.097C170.227 274.513 179.518 242.62 179.518 242.62L190.668 208.939L194.184 180.537L183.967 180.774Z" fill="#C17560"/>
<path d="M180.53 209.7C180.596 209.676 181.041 210.628 181.633 212.219C182.22 213.81 182.938 216.052 183.466 218.593C183.992 221.136 184.224 223.477 184.316 225.169C184.405 226.863 184.374 227.912 184.305 227.915C184.224 227.919 184.12 226.877 183.934 225.201C183.745 223.526 183.455 221.216 182.936 218.702C182.414 216.189 181.762 213.953 181.27 212.339C180.774 210.726 180.456 209.728 180.53 209.7Z" fill="#7C4236"/>
<mask id="mask4_1212_198" style="mask-type:luminance" maskUnits="userSpaceOnUse" x="120" y="417" width="41" height="40">
<path d="M120.99 417.076H160.466V456.188H120.99V417.076Z" fill="white"/>
</mask>
<g mask="url(#mask4_1212_198)">
<g opacity="0.300003">
<path d="M160.466 436.632C160.466 447.433 151.629 456.188 140.728 456.188C129.827 456.188 120.99 447.433 120.99 436.632C120.99 425.832 129.827 417.076 140.728 417.076C151.629 417.076 160.466 425.832 160.466 436.632Z" fill="black"/>
</g>
</g>
<path d="M167.412 436.632C167.412 447.433 158.575 456.188 147.673 456.188C136.773 456.188 127.936 447.433 127.936 436.632C127.936 425.832 136.773 417.076 147.673 417.076C158.575 417.076 167.412 425.832 167.412 436.632Z" fill="#FF735D"/>
<path d="M148.345 438.653L147.432 438.717L147.538 440.172L146.272 440.261L146.167 438.808L143.146 439.022L143.069 437.943L145.394 433.361L146.755 433.264L144.607 437.604L146.112 437.498L146.019 436.202L147.244 436.114L147.338 437.41L148.251 437.345L148.345 438.653Z" fill="#1A2E35"/>
<path d="M150.796 437.842L150.248 438.617L150.346 439.972L149.097 440.06L148.566 432.718L149.815 432.629L150.115 436.786L151.788 434.519L153.277 434.414L151.646 436.796L153.823 439.724L152.309 439.833L150.796 437.842Z" fill="#1A2E35"/>
<path d="M164.205 436.632C164.115 436.64 164.226 435.171 163.585 432.659C163.287 431.4 162.682 429.916 161.738 428.345C160.786 426.78 159.418 425.148 157.559 423.764C155.707 422.394 153.374 421.229 150.684 420.762C148.011 420.312 144.997 420.398 142.128 421.482C140.684 421.979 139.292 422.732 138.012 423.681C137.351 424.131 136.774 424.695 136.169 425.237C135.621 425.837 135.046 426.425 134.575 427.107C132.574 429.745 131.447 433.136 131.414 436.63C131.446 440.125 132.573 443.517 134.574 446.156C135.045 446.837 135.62 447.425 136.167 448.026C136.773 448.568 137.35 449.132 138.011 449.582C139.291 450.532 140.684 451.284 142.128 451.782C144.997 452.866 148.012 452.952 150.685 452.501C153.375 452.033 155.708 450.87 157.56 449.499C159.419 448.116 160.786 446.483 161.739 444.918C162.682 443.347 163.287 441.862 163.586 440.605C164.225 438.093 164.115 436.624 164.205 436.632C164.214 436.632 164.219 436.722 164.219 436.898C164.215 437.105 164.211 437.362 164.206 437.679C164.206 438.024 164.187 438.449 164.103 438.946C164.035 439.445 163.971 440.024 163.79 440.656C163.518 441.937 162.936 443.456 161.999 445.072C161.055 446.68 159.679 448.365 157.793 449.801C155.913 451.224 153.528 452.438 150.767 452.938C148.025 453.421 144.921 453.35 141.958 452.247C140.467 451.74 139.027 450.969 137.704 449.994C137.02 449.531 136.421 448.953 135.796 448.393C135.229 447.776 134.636 447.17 134.147 446.467C132.075 443.747 130.903 440.24 130.873 436.63C130.904 433.02 132.076 429.514 134.148 426.795C134.637 426.093 135.23 425.487 135.797 424.87C136.422 424.311 137.021 423.732 137.705 423.269C139.027 422.294 140.467 421.524 141.958 421.017C144.921 419.914 148.023 419.842 150.766 420.325C153.527 420.825 155.912 422.04 157.792 423.462C159.678 424.898 161.054 426.583 161.998 428.192C162.935 429.806 163.518 431.326 163.79 432.607C163.971 433.239 164.035 433.819 164.103 434.318C164.187 434.814 164.206 435.24 164.206 435.585C164.211 435.901 164.215 436.159 164.219 436.366C164.219 436.542 164.214 436.632 164.205 436.632Z" fill="#1A2E35"/>
</g>
</svg>
