<svg width="560" height="238" viewBox="0 0 560 238" fill="none" xmlns="http://www.w3.org/2000/svg">
<path d="M13.44 54L1.632 20.16H5.808L16.128 50.64H14.448L25.296 20.16H28.464L38.736 50.64H37.2L47.808 20.16H51.744L39.84 54H36.288L26.304 24.672H27.312L16.896 54H13.44ZM55.6166 37.056C55.6166 33.472 56.2246 30.4 57.4406 27.84C58.6886 25.248 60.4646 23.248 62.7686 21.84C65.1046 20.432 67.9046 19.728 71.1686 19.728C74.3366 19.728 77.0886 20.432 79.4246 21.84C81.7606 23.248 83.5526 25.248 84.8006 27.84C86.0806 30.4 86.7206 33.456 86.7206 37.008C86.7206 40.592 86.0806 43.68 84.8006 46.272C83.5206 48.864 81.7126 50.88 79.3766 52.32C77.0726 53.728 74.3366 54.432 71.1686 54.432C67.9046 54.432 65.1206 53.728 62.8166 52.32C60.5126 50.88 58.7366 48.864 57.4886 46.272C56.2406 43.68 55.6166 40.608 55.6166 37.056ZM59.7926 37.056C59.7926 41.408 60.7526 44.816 62.6726 47.28C64.5926 49.712 67.4246 50.928 71.1686 50.928C74.7526 50.928 77.5366 49.712 79.5206 47.28C81.5366 44.816 82.5446 41.408 82.5446 37.056C82.5446 32.672 81.5526 29.28 79.5686 26.88C77.5846 24.448 74.7846 23.232 71.1686 23.232C67.4246 23.232 64.5926 24.448 62.6726 26.88C60.7526 29.28 59.7926 32.672 59.7926 37.056ZM93.9428 54V20.16H107.767C111.319 20.16 114.071 21.008 116.023 22.704C117.975 24.368 118.951 26.704 118.951 29.712C118.951 31.696 118.503 33.392 117.607 34.8C116.743 36.176 115.511 37.232 113.911 37.968C112.343 38.704 110.503 39.072 108.391 39.072L109.255 38.448H110.215C111.527 38.448 112.695 38.768 113.719 39.408C114.775 40.048 115.607 41.12 116.215 42.624L121.015 54H116.647L112.039 42.816C111.495 41.376 110.679 40.448 109.591 40.032C108.503 39.584 107.143 39.36 105.511 39.36H97.9268V54H93.9428ZM97.9268 36.24H107.191C109.751 36.24 111.687 35.696 112.999 34.608C114.343 33.488 115.015 31.888 115.015 29.808C115.015 27.728 114.343 26.144 112.999 25.056C111.687 23.968 109.751 23.424 107.191 23.424H97.9268V36.24ZM127.177 54V20.16H131.161V35.52H131.257L147.481 20.16H152.569L133.897 37.632L133.945 35.616L153.913 54H148.681L131.257 38.064H131.161V54H127.177ZM154.945 37.056C154.945 33.472 155.553 30.4 156.769 27.84C158.017 25.248 159.793 23.248 162.097 21.84C164.433 20.432 167.233 19.728 170.497 19.728C173.665 19.728 176.417 20.432 178.753 21.84C181.089 23.248 182.881 25.248 184.129 27.84C185.409 30.4 186.049 33.456 186.049 37.008C186.049 40.592 185.409 43.68 184.129 46.272C182.849 48.864 181.041 50.88 178.705 52.32C176.401 53.728 173.665 54.432 170.497 54.432C167.233 54.432 164.449 53.728 162.145 52.32C159.841 50.88 158.065 48.864 156.817 46.272C155.569 43.68 154.945 40.608 154.945 37.056ZM159.121 37.056C159.121 41.408 160.081 44.816 162.001 47.28C163.921 49.712 166.753 50.928 170.497 50.928C174.081 50.928 176.865 49.712 178.849 47.28C180.865 44.816 181.873 41.408 181.873 37.056C181.873 32.672 180.881 29.28 178.897 26.88C176.913 24.448 174.113 23.232 170.497 23.232C166.753 23.232 163.921 24.448 162.001 26.88C160.081 29.28 159.121 32.672 159.121 37.056ZM206.615 54.432C202.039 54.432 198.631 53.264 196.391 50.928C194.183 48.592 193.079 45.152 193.079 40.608V20.16H197.015V40.416C197.015 43.904 197.783 46.528 199.319 48.288C200.855 50.048 203.287 50.928 206.615 50.928C209.751 50.928 212.135 50.048 213.767 48.288C215.399 46.528 216.215 43.904 216.215 40.416V20.16H220.151V40.608C220.151 45.152 218.999 48.592 216.695 50.928C214.423 53.264 211.063 54.432 206.615 54.432ZM236.541 54V23.52H224.589V20.16H252.429V23.52H240.525V54H236.541ZM267.17 54.432C264.45 54.432 262.018 54.08 259.874 53.376C257.73 52.672 255.858 51.664 254.258 50.352L255.698 47.184C256.818 48.016 257.938 48.72 259.058 49.296C260.21 49.84 261.442 50.256 262.754 50.544C264.066 50.8 265.538 50.928 267.17 50.928C270.018 50.928 272.13 50.4 273.506 49.344C274.882 48.288 275.57 46.88 275.57 45.12C275.57 43.616 275.09 42.464 274.13 41.664C273.17 40.864 271.49 40.224 269.09 39.744L264.05 38.736C260.946 38.096 258.626 37.056 257.09 35.616C255.586 34.176 254.834 32.224 254.834 29.76C254.834 27.744 255.346 25.984 256.37 24.48C257.426 22.976 258.898 21.808 260.786 20.976C262.674 20.144 264.866 19.728 267.362 19.728C269.762 19.728 271.954 20.096 273.938 20.832C275.922 21.536 277.618 22.576 279.026 23.952L277.634 27.024C276.13 25.68 274.546 24.72 272.882 24.144C271.25 23.536 269.394 23.232 267.314 23.232C264.69 23.232 262.61 23.808 261.074 24.96C259.57 26.08 258.818 27.616 258.818 29.568C258.818 31.136 259.298 32.368 260.258 33.264C261.218 34.128 262.802 34.784 265.01 35.232L270.098 36.24C273.362 36.912 275.762 37.92 277.298 39.264C278.834 40.608 279.602 42.496 279.602 44.928C279.602 46.784 279.09 48.432 278.066 49.872C277.074 51.312 275.65 52.432 273.794 53.232C271.938 54.032 269.73 54.432 267.17 54.432ZM298.6 54V20.16H302.056L315.64 50.832H314.248L327.832 20.16H331.288V54H327.64V25.296H329.08L316.264 54H313.624L300.76 25.296H302.2V54H298.6ZM336.395 54L351.323 20.16H354.779L369.947 54H365.819L361.595 44.352L363.371 45.36H342.683L344.603 44.352L340.475 54H336.395ZM353.003 24.72L345.227 42.96L344.075 42.096H361.931L361.067 42.96L353.099 24.72H353.003ZM375.052 54V20.16H386.284C390.028 20.16 393.196 20.816 395.788 22.128C398.38 23.408 400.348 25.312 401.692 27.84C403.036 30.336 403.708 33.408 403.708 37.056C403.708 40.672 403.036 43.744 401.692 46.272C400.348 48.8 398.38 50.72 395.788 52.032C393.196 53.344 390.028 54 386.284 54H375.052ZM379.036 50.592H385.996C390.604 50.592 394.028 49.472 396.268 47.232C398.508 44.96 399.628 41.568 399.628 37.056C399.628 32.512 398.508 29.12 396.268 26.88C394.028 24.64 390.604 23.52 385.996 23.52H379.036V50.592ZM410.912 54V20.16H432.512V23.424H414.8V35.184H431.456V38.496H414.8V50.688H432.512V54H410.912ZM277.505 126V92.16H298.625V95.424H281.489V107.28H297.569V110.544H281.489V126H277.505ZM302.414 109.056C302.414 105.472 303.022 102.4 304.238 99.84C305.486 97.248 307.262 95.248 309.566 93.84C311.902 92.432 314.702 91.728 317.966 91.728C321.134 91.728 323.886 92.432 326.222 93.84C328.558 95.248 330.35 97.248 331.598 99.84C332.878 102.4 333.518 105.456 333.518 109.008C333.518 112.592 332.878 115.68 331.598 118.272C330.318 120.864 328.51 122.88 326.174 124.32C323.87 125.728 321.134 126.432 317.966 126.432C314.702 126.432 311.918 125.728 309.614 124.32C307.31 122.88 305.534 120.864 304.286 118.272C303.038 115.68 302.414 112.608 302.414 109.056ZM306.59 109.056C306.59 113.408 307.55 116.816 309.47 119.28C311.39 121.712 314.222 122.928 317.966 122.928C321.55 122.928 324.334 121.712 326.318 119.28C328.334 116.816 329.342 113.408 329.342 109.056C329.342 104.672 328.35 101.28 326.366 98.88C324.382 96.448 321.582 95.232 317.966 95.232C314.222 95.232 311.39 96.448 309.47 98.88C307.55 101.28 306.59 104.672 306.59 109.056ZM340.74 126V92.16H354.564C358.116 92.16 360.868 93.008 362.82 94.704C364.772 96.368 365.748 98.704 365.748 101.712C365.748 103.696 365.3 105.392 364.404 106.8C363.54 108.176 362.308 109.232 360.708 109.968C359.14 110.704 357.3 111.072 355.188 111.072L356.052 110.448H357.012C358.324 110.448 359.492 110.768 360.516 111.408C361.572 112.048 362.404 113.12 363.012 114.624L367.812 126H363.444L358.836 114.816C358.292 113.376 357.476 112.448 356.388 112.032C355.3 111.584 353.94 111.36 352.308 111.36H344.724V126H340.74ZM344.724 108.24H353.988C356.548 108.24 358.484 107.696 359.796 106.608C361.14 105.488 361.812 103.888 361.812 101.808C361.812 99.728 361.14 98.144 359.796 97.056C358.484 95.968 356.548 95.424 353.988 95.424H344.724V108.24ZM394.842 126V110.208L395.706 112.896L381.69 92.16H386.298L397.434 109.008H396.426L407.514 92.16H411.93L397.962 112.896L398.826 110.208V126H394.842ZM412.289 109.056C412.289 105.472 412.897 102.4 414.113 99.84C415.361 97.248 417.137 95.248 419.441 93.84C421.777 92.432 424.577 91.728 427.841 91.728C431.009 91.728 433.761 92.432 436.097 93.84C438.433 95.248 440.225 97.248 441.473 99.84C442.753 102.4 443.393 105.456 443.393 109.008C443.393 112.592 442.753 115.68 441.473 118.272C440.193 120.864 438.385 122.88 436.049 124.32C433.745 125.728 431.009 126.432 427.841 126.432C424.577 126.432 421.793 125.728 419.489 124.32C417.185 122.88 415.409 120.864 414.161 118.272C412.913 115.68 412.289 112.608 412.289 109.056ZM416.465 109.056C416.465 113.408 417.425 116.816 419.345 119.28C421.265 121.712 424.097 122.928 427.841 122.928C431.425 122.928 434.209 121.712 436.193 119.28C438.209 116.816 439.217 113.408 439.217 109.056C439.217 104.672 438.225 101.28 436.241 98.88C434.257 96.448 431.457 95.232 427.841 95.232C424.097 95.232 421.265 96.448 419.345 98.88C417.425 101.28 416.465 104.672 416.465 109.056ZM463.959 126.432C459.383 126.432 455.975 125.264 453.735 122.928C451.527 120.592 450.423 117.152 450.423 112.608V92.16H454.359V112.416C454.359 115.904 455.127 118.528 456.663 120.288C458.199 122.048 460.631 122.928 463.959 122.928C467.095 122.928 469.479 122.048 471.111 120.288C472.743 118.528 473.559 115.904 473.559 112.416V92.16H477.495V112.608C477.495 117.152 476.343 120.592 474.039 122.928C471.767 125.264 468.407 126.432 463.959 126.432ZM485.725 117.168L484.525 92.16H489.325L488.125 117.168H485.725ZM484.477 126V121.104H489.373V126H484.477Z" fill="black"/>
<path d="M3.744 126V92.16H26.544V97.008H9.696V106.368H25.44V111.264H9.696V121.104H26.544V126H3.744ZM27.9285 126L41.8485 107.472V110.112L28.4085 92.16H35.6565L45.4005 105.648H43.4325L53.1285 92.16H60.4245L46.9365 110.112V107.472L60.9045 126H53.6085L43.3365 111.888H45.4485L35.1765 126H27.9285ZM78.6443 126.48C75.1243 126.48 72.1003 125.776 69.5723 124.368C67.0763 122.928 65.1563 120.912 63.8123 118.32C62.4683 115.696 61.7963 112.608 61.7963 109.056C61.7963 105.504 62.4683 102.432 63.8123 99.84C65.1563 97.248 67.0763 95.248 69.5723 93.84C72.1003 92.4 75.1243 91.68 78.6443 91.68C81.0123 91.68 83.1403 92.016 85.0283 92.688C86.9483 93.36 88.5963 94.352 89.9723 95.664L87.9563 100.56C86.4523 99.344 84.9963 98.48 83.5883 97.968C82.2123 97.424 80.6283 97.152 78.8363 97.152C75.4123 97.152 72.7883 98.192 70.9643 100.272C69.1723 102.32 68.2763 105.248 68.2763 109.056C68.2763 112.864 69.1723 115.808 70.9643 117.888C72.7883 119.968 75.4123 121.008 78.8363 121.008C80.6283 121.008 82.2123 120.752 83.5883 120.24C84.9963 119.696 86.4523 118.8 87.9563 117.552L89.9723 122.448C88.5963 123.728 86.9483 124.72 85.0283 125.424C83.1403 126.128 81.0123 126.48 78.6443 126.48ZM95.7596 126V92.16H101.952V120.768H117.888V126H95.7596ZM135.372 126.48C130.54 126.48 126.94 125.28 124.572 122.88C122.236 120.448 121.068 116.864 121.068 112.128V92.16H127.26V112.08C127.26 115.088 127.9 117.36 129.18 118.896C130.492 120.432 132.556 121.2 135.372 121.2C138.06 121.2 140.076 120.432 141.42 118.896C142.796 117.36 143.484 115.088 143.484 112.08V92.16H149.58V112.128C149.58 116.864 148.38 120.448 145.98 122.88C143.612 125.28 140.076 126.48 135.372 126.48ZM168.599 126.48C165.879 126.48 163.367 126.144 161.063 125.472C158.791 124.768 156.839 123.808 155.207 122.592L157.127 117.744C158.215 118.512 159.351 119.168 160.535 119.712C161.719 120.224 162.983 120.624 164.327 120.912C165.671 121.168 167.095 121.296 168.599 121.296C171.127 121.296 172.951 120.88 174.071 120.048C175.191 119.216 175.751 118.128 175.751 116.784C175.751 115.6 175.367 114.704 174.599 114.096C173.831 113.456 172.455 112.928 170.471 112.512L165.047 111.408C161.943 110.768 159.623 109.696 158.087 108.192C156.551 106.688 155.783 104.672 155.783 102.144C155.783 100.032 156.343 98.192 157.463 96.624C158.583 95.056 160.151 93.84 162.167 92.976C164.183 92.112 166.535 91.68 169.223 91.68C171.623 91.68 173.847 92.032 175.895 92.736C177.943 93.408 179.655 94.384 181.031 95.664L179.111 100.272C177.735 99.12 176.231 98.272 174.599 97.728C172.967 97.152 171.143 96.864 169.127 96.864C166.855 96.864 165.079 97.312 163.799 98.208C162.551 99.072 161.927 100.272 161.927 101.808C161.927 102.992 162.311 103.936 163.079 104.64C163.879 105.344 165.223 105.888 167.111 106.272L172.487 107.328C175.687 107.968 178.055 109.024 179.591 110.496C181.127 111.936 181.895 113.888 181.895 116.352C181.895 118.368 181.351 120.144 180.263 121.68C179.175 123.184 177.639 124.368 175.655 125.232C173.671 126.064 171.319 126.48 168.599 126.48ZM187.728 126V92.16H193.92V126H187.728ZM212.313 126L197.241 92.16H203.913L216.057 120.576H214.041L226.185 92.16H232.617L217.545 126H212.313ZM235.963 126V92.16H258.763V97.008H241.915V106.368H257.659V111.264H241.915V121.104H258.763V126H235.963Z" fill="#89C5CC"/>
<path d="M14.5391 167.578L11.4844 179H10.1484L7.88281 171.312C7.8151 171.094 7.75 170.875 7.6875 170.656C7.63021 170.432 7.57552 170.221 7.52344 170.023C7.47135 169.82 7.42708 169.643 7.39062 169.492C7.35938 169.336 7.33594 169.219 7.32031 169.141C7.3099 169.219 7.28906 169.333 7.25781 169.484C7.23177 169.635 7.19531 169.81 7.14844 170.008C7.10677 170.206 7.05469 170.417 6.99219 170.641C6.9349 170.865 6.8724 171.091 6.80469 171.32L4.60156 179H3.26562L0.234375 167.578H1.61719L3.45312 174.742C3.51562 174.982 3.57292 175.219 3.625 175.453C3.68229 175.682 3.73177 175.906 3.77344 176.125C3.82031 176.344 3.86198 176.557 3.89844 176.766C3.9349 176.974 3.96875 177.177 4 177.375C4.02604 177.172 4.0599 176.961 4.10156 176.742C4.14323 176.518 4.1875 176.292 4.23438 176.062C4.28646 175.833 4.34115 175.602 4.39844 175.367C4.46094 175.133 4.52604 174.898 4.59375 174.664L6.64844 167.578H8.01562L10.1562 174.719C10.2292 174.964 10.2969 175.206 10.3594 175.445C10.4219 175.685 10.4766 175.919 10.5234 176.148C10.5755 176.372 10.6198 176.589 10.6562 176.797C10.6979 177 10.7344 177.193 10.7656 177.375C10.8021 177.12 10.8464 176.852 10.8984 176.57C10.9505 176.289 11.0104 175.995 11.0781 175.688C11.151 175.38 11.2292 175.062 11.3125 174.734L13.1484 167.578H14.5391ZM19.4453 170.281C20.1745 170.281 20.7995 170.443 21.3203 170.766C21.8411 171.089 22.2396 171.542 22.5156 172.125C22.7917 172.703 22.9297 173.38 22.9297 174.156V174.961H17.0156C17.0312 175.966 17.2812 176.732 17.7656 177.258C18.25 177.784 18.9323 178.047 19.8125 178.047C20.3542 178.047 20.8333 177.997 21.25 177.898C21.6667 177.799 22.099 177.654 22.5469 177.461V178.602C22.1146 178.794 21.6849 178.935 21.2578 179.023C20.8359 179.112 20.3359 179.156 19.7578 179.156C18.9349 179.156 18.2161 178.99 17.6016 178.656C16.9922 178.318 16.5182 177.823 16.1797 177.172C15.8411 176.521 15.6719 175.724 15.6719 174.781C15.6719 173.859 15.8255 173.062 16.1328 172.391C16.4453 171.714 16.8828 171.193 17.4453 170.828C18.013 170.464 18.6797 170.281 19.4453 170.281ZM19.4297 171.344C18.737 171.344 18.1849 171.57 17.7734 172.023C17.362 172.477 17.1172 173.109 17.0391 173.922H21.5703C21.5651 173.411 21.4844 172.964 21.3281 172.578C21.1771 172.188 20.9453 171.885 20.6328 171.672C20.3203 171.453 19.9193 171.344 19.4297 171.344ZM32.7188 179.156C31.9479 179.156 31.2682 178.997 30.6797 178.68C30.0911 178.362 29.6328 177.878 29.3047 177.227C28.9766 176.576 28.8125 175.755 28.8125 174.766C28.8125 173.729 28.9844 172.883 29.3281 172.227C29.6771 171.565 30.1562 171.076 30.7656 170.758C31.375 170.44 32.0677 170.281 32.8438 170.281C33.2708 170.281 33.6823 170.326 34.0781 170.414C34.4792 170.497 34.8073 170.604 35.0625 170.734L34.6719 171.82C34.4115 171.716 34.1094 171.622 33.7656 171.539C33.4271 171.456 33.1094 171.414 32.8125 171.414C32.2188 171.414 31.724 171.542 31.3281 171.797C30.9375 172.052 30.6432 172.427 30.4453 172.922C30.2526 173.417 30.1562 174.026 30.1562 174.75C30.1562 175.443 30.25 176.034 30.4375 176.523C30.6302 177.013 30.9141 177.388 31.2891 177.648C31.6693 177.904 32.1432 178.031 32.7109 178.031C33.1641 178.031 33.5729 177.984 33.9375 177.891C34.3021 177.792 34.6328 177.677 34.9297 177.547V178.703C34.6432 178.849 34.3229 178.961 33.9688 179.039C33.6198 179.117 33.2031 179.156 32.7188 179.156ZM40.8516 170.281C41.0234 170.281 41.2031 170.292 41.3906 170.312C41.5781 170.328 41.7448 170.352 41.8906 170.383L41.7266 171.586C41.5859 171.549 41.4297 171.521 41.2578 171.5C41.0859 171.479 40.9245 171.469 40.7734 171.469C40.4297 171.469 40.1042 171.539 39.7969 171.68C39.4948 171.815 39.2292 172.013 39 172.273C38.7708 172.529 38.5911 172.839 38.4609 173.203C38.3307 173.562 38.2656 173.964 38.2656 174.406V179H36.9609V170.438H38.0391L38.1797 172.016H38.2344C38.4115 171.698 38.625 171.409 38.875 171.148C39.125 170.883 39.4141 170.672 39.7422 170.516C40.0755 170.359 40.4453 170.281 40.8516 170.281ZM46.8047 170.281C47.5339 170.281 48.1589 170.443 48.6797 170.766C49.2005 171.089 49.599 171.542 49.875 172.125C50.151 172.703 50.2891 173.38 50.2891 174.156V174.961H44.375C44.3906 175.966 44.6406 176.732 45.125 177.258C45.6094 177.784 46.2917 178.047 47.1719 178.047C47.7135 178.047 48.1927 177.997 48.6094 177.898C49.026 177.799 49.4583 177.654 49.9062 177.461V178.602C49.474 178.794 49.0443 178.935 48.6172 179.023C48.1953 179.112 47.6953 179.156 47.1172 179.156C46.2943 179.156 45.5755 178.99 44.9609 178.656C44.3516 178.318 43.8776 177.823 43.5391 177.172C43.2005 176.521 43.0312 175.724 43.0312 174.781C43.0312 173.859 43.1849 173.062 43.4922 172.391C43.8047 171.714 44.2422 171.193 44.8047 170.828C45.3724 170.464 46.0391 170.281 46.8047 170.281ZM46.7891 171.344C46.0964 171.344 45.5443 171.57 45.1328 172.023C44.7214 172.477 44.4766 173.109 44.3984 173.922H48.9297C48.9245 173.411 48.8438 172.964 48.6875 172.578C48.5365 172.188 48.3047 171.885 47.9922 171.672C47.6797 171.453 47.2786 171.344 46.7891 171.344ZM55.6953 170.297C56.7161 170.297 57.474 170.526 57.9688 170.984C58.4635 171.443 58.7109 172.174 58.7109 173.18V179H57.7656L57.5156 177.734H57.4531C57.2135 178.047 56.9635 178.31 56.7031 178.523C56.4427 178.732 56.1406 178.891 55.7969 179C55.4583 179.104 55.0417 179.156 54.5469 179.156C54.026 179.156 53.5625 179.065 53.1562 178.883C52.7552 178.701 52.4375 178.424 52.2031 178.055C51.974 177.685 51.8594 177.216 51.8594 176.648C51.8594 175.794 52.1979 175.138 52.875 174.68C53.5521 174.221 54.5833 173.971 55.9688 173.93L57.4453 173.867V173.344C57.4453 172.604 57.2865 172.086 56.9688 171.789C56.651 171.492 56.2031 171.344 55.625 171.344C55.1771 171.344 54.75 171.409 54.3438 171.539C53.9375 171.669 53.5521 171.823 53.1875 172L52.7891 171.016C53.1745 170.818 53.6172 170.648 54.1172 170.508C54.6172 170.367 55.1432 170.297 55.6953 170.297ZM57.4297 174.781L56.125 174.836C55.0573 174.878 54.3047 175.052 53.8672 175.359C53.4297 175.667 53.2109 176.102 53.2109 176.664C53.2109 177.154 53.3594 177.516 53.6562 177.75C53.9531 177.984 54.3464 178.102 54.8359 178.102C55.5964 178.102 56.2188 177.891 56.7031 177.469C57.1875 177.047 57.4297 176.414 57.4297 175.57V174.781ZM64.1484 178.094C64.362 178.094 64.5807 178.076 64.8047 178.039C65.0286 178.003 65.2109 177.958 65.3516 177.906V178.914C65.2005 178.982 64.9896 179.039 64.7188 179.086C64.4531 179.133 64.1927 179.156 63.9375 179.156C63.4844 179.156 63.0729 179.078 62.7031 178.922C62.3333 178.76 62.0365 178.49 61.8125 178.109C61.5938 177.729 61.4844 177.203 61.4844 176.531V171.453H60.2656V170.82L61.4922 170.312L62.0078 168.453H62.7891V170.438H65.2969V171.453H62.7891V176.492C62.7891 177.029 62.9115 177.43 63.1562 177.695C63.4062 177.961 63.737 178.094 64.1484 178.094ZM70.3828 170.281C71.112 170.281 71.737 170.443 72.2578 170.766C72.7786 171.089 73.1771 171.542 73.4531 172.125C73.7292 172.703 73.8672 173.38 73.8672 174.156V174.961H67.9531C67.9688 175.966 68.2188 176.732 68.7031 177.258C69.1875 177.784 69.8698 178.047 70.75 178.047C71.2917 178.047 71.7708 177.997 72.1875 177.898C72.6042 177.799 73.0365 177.654 73.4844 177.461V178.602C73.0521 178.794 72.6224 178.935 72.1953 179.023C71.7734 179.112 71.2734 179.156 70.6953 179.156C69.8724 179.156 69.1536 178.99 68.5391 178.656C67.9297 178.318 67.4557 177.823 67.1172 177.172C66.7786 176.521 66.6094 175.724 66.6094 174.781C66.6094 173.859 66.763 173.062 67.0703 172.391C67.3828 171.714 67.8203 171.193 68.3828 170.828C68.9505 170.464 69.6172 170.281 70.3828 170.281ZM70.3672 171.344C69.6745 171.344 69.1224 171.57 68.7109 172.023C68.2995 172.477 68.0547 173.109 67.9766 173.922H72.5078C72.5026 173.411 72.4219 172.964 72.2656 172.578C72.1146 172.188 71.8828 171.885 71.5703 171.672C71.2578 171.453 70.8568 171.344 70.3672 171.344ZM83.7109 170.102C84.5182 170.102 85.2135 170.258 85.7969 170.57C86.3802 170.878 86.8307 171.326 87.1484 171.914C87.4661 172.503 87.625 173.221 87.625 174.07V175.227H81.9922C82.0182 175.898 82.2188 176.427 82.5938 176.812C82.974 177.193 83.5 177.383 84.1719 177.383C84.7292 177.383 85.2396 177.326 85.7031 177.211C86.1667 177.096 86.6432 176.924 87.1328 176.695V178.539C86.7005 178.753 86.2474 178.909 85.7734 179.008C85.3047 179.107 84.7344 179.156 84.0625 179.156C83.1875 179.156 82.4115 178.995 81.7344 178.672C81.0625 178.349 80.5339 177.857 80.1484 177.195C79.7682 176.534 79.5781 175.701 79.5781 174.695C79.5781 173.674 79.75 172.826 80.0938 172.148C80.4427 171.466 80.9271 170.956 81.5469 170.617C82.1667 170.273 82.888 170.102 83.7109 170.102ZM83.7266 171.797C83.263 171.797 82.8776 171.945 82.5703 172.242C82.2682 172.539 82.0938 173.005 82.0469 173.641H85.3906C85.3854 173.286 85.3203 172.971 85.1953 172.695C85.0755 172.419 84.8932 172.201 84.6484 172.039C84.4089 171.878 84.1016 171.797 83.7266 171.797ZM91.3516 174.539L88.5391 170.266H91.2422L92.9375 173.047L94.6484 170.266H97.3516L94.5078 174.539L97.4844 179H94.7734L92.9375 176.008L91.0938 179H88.3906L91.3516 174.539ZM102.359 179.156C101.495 179.156 100.758 179 100.148 178.688C99.5391 178.37 99.0755 177.88 98.7578 177.219C98.4401 176.557 98.2812 175.711 98.2812 174.68C98.2812 173.612 98.4609 172.742 98.8203 172.07C99.1849 171.393 99.6875 170.896 100.328 170.578C100.974 170.26 101.721 170.102 102.57 170.102C103.174 170.102 103.695 170.161 104.133 170.281C104.576 170.396 104.961 170.534 105.289 170.695L104.586 172.539C104.211 172.388 103.862 172.266 103.539 172.172C103.216 172.073 102.893 172.023 102.57 172.023C102.154 172.023 101.807 172.122 101.531 172.32C101.255 172.513 101.049 172.805 100.914 173.195C100.779 173.586 100.711 174.076 100.711 174.664C100.711 175.242 100.784 175.721 100.93 176.102C101.076 176.482 101.286 176.766 101.562 176.953C101.839 177.135 102.174 177.227 102.57 177.227C103.065 177.227 103.505 177.161 103.891 177.031C104.276 176.896 104.651 176.708 105.016 176.469V178.508C104.651 178.737 104.268 178.901 103.867 179C103.471 179.104 102.969 179.156 102.359 179.156ZM109.43 179H107.047V166.844H109.43V179ZM119.953 170.266V179H118.125L117.805 177.883H117.68C117.492 178.18 117.258 178.422 116.977 178.609C116.695 178.797 116.385 178.935 116.047 179.023C115.708 179.112 115.357 179.156 114.992 179.156C114.367 179.156 113.823 179.047 113.359 178.828C112.896 178.604 112.534 178.258 112.273 177.789C112.018 177.32 111.891 176.711 111.891 175.961V170.266H114.273V175.367C114.273 175.992 114.385 176.464 114.609 176.781C114.833 177.099 115.19 177.258 115.68 177.258C116.164 177.258 116.544 177.148 116.82 176.93C117.096 176.706 117.289 176.38 117.398 175.953C117.513 175.521 117.57 174.995 117.57 174.375V170.266H119.953ZM128.547 176.406C128.547 177 128.406 177.503 128.125 177.914C127.849 178.32 127.435 178.63 126.883 178.844C126.331 179.052 125.643 179.156 124.82 179.156C124.211 179.156 123.688 179.117 123.25 179.039C122.818 178.961 122.38 178.831 121.938 178.648V176.68C122.411 176.893 122.919 177.07 123.461 177.211C124.008 177.346 124.487 177.414 124.898 177.414C125.362 177.414 125.693 177.346 125.891 177.211C126.094 177.07 126.195 176.888 126.195 176.664C126.195 176.518 126.154 176.388 126.07 176.273C125.992 176.154 125.82 176.021 125.555 175.875C125.289 175.724 124.872 175.529 124.305 175.289C123.758 175.06 123.307 174.828 122.953 174.594C122.604 174.359 122.344 174.083 122.172 173.766C122.005 173.443 121.922 173.034 121.922 172.539C121.922 171.732 122.234 171.125 122.859 170.719C123.49 170.307 124.331 170.102 125.383 170.102C125.924 170.102 126.44 170.156 126.93 170.266C127.424 170.375 127.932 170.549 128.453 170.789L127.734 172.508C127.302 172.32 126.893 172.167 126.508 172.047C126.128 171.927 125.74 171.867 125.344 171.867C124.995 171.867 124.732 171.914 124.555 172.008C124.378 172.102 124.289 172.245 124.289 172.438C124.289 172.578 124.333 172.703 124.422 172.812C124.516 172.922 124.693 173.044 124.953 173.18C125.219 173.31 125.607 173.479 126.117 173.688C126.612 173.891 127.042 174.104 127.406 174.328C127.771 174.547 128.052 174.82 128.25 175.148C128.448 175.471 128.547 175.891 128.547 176.406ZM132.789 170.266V179H130.406V170.266H132.789ZM131.602 166.844C131.956 166.844 132.26 166.927 132.516 167.094C132.771 167.255 132.898 167.56 132.898 168.008C132.898 168.451 132.771 168.758 132.516 168.93C132.26 169.096 131.956 169.18 131.602 169.18C131.242 169.18 130.935 169.096 130.68 168.93C130.43 168.758 130.305 168.451 130.305 168.008C130.305 167.56 130.43 167.255 130.68 167.094C130.935 166.927 131.242 166.844 131.602 166.844ZM137.375 179L134.047 170.266H136.539L138.227 175.242C138.32 175.534 138.393 175.841 138.445 176.164C138.503 176.487 138.542 176.776 138.562 177.031H138.625C138.641 176.755 138.677 176.461 138.734 176.148C138.797 175.836 138.878 175.534 138.977 175.242L140.656 170.266H143.148L139.82 179H137.375ZM148.008 170.102C148.815 170.102 149.51 170.258 150.094 170.57C150.677 170.878 151.128 171.326 151.445 171.914C151.763 172.503 151.922 173.221 151.922 174.07V175.227H146.289C146.315 175.898 146.516 176.427 146.891 176.812C147.271 177.193 147.797 177.383 148.469 177.383C149.026 177.383 149.536 177.326 150 177.211C150.464 177.096 150.94 176.924 151.43 176.695V178.539C150.997 178.753 150.544 178.909 150.07 179.008C149.602 179.107 149.031 179.156 148.359 179.156C147.484 179.156 146.708 178.995 146.031 178.672C145.359 178.349 144.831 177.857 144.445 177.195C144.065 176.534 143.875 175.701 143.875 174.695C143.875 173.674 144.047 172.826 144.391 172.148C144.74 171.466 145.224 170.956 145.844 170.617C146.464 170.273 147.185 170.102 148.008 170.102ZM148.023 171.797C147.56 171.797 147.174 171.945 146.867 172.242C146.565 172.539 146.391 173.005 146.344 173.641H149.688C149.682 173.286 149.617 172.971 149.492 172.695C149.372 172.419 149.19 172.201 148.945 172.039C148.706 171.878 148.398 171.797 148.023 171.797ZM161.594 170.086C162.766 170.086 163.664 170.341 164.289 170.852C164.914 171.362 165.227 172.138 165.227 173.18V179H163.562L163.102 177.812H163.039C162.789 178.125 162.534 178.38 162.273 178.578C162.013 178.776 161.714 178.922 161.375 179.016C161.036 179.109 160.625 179.156 160.141 179.156C159.625 179.156 159.161 179.057 158.75 178.859C158.344 178.661 158.023 178.359 157.789 177.953C157.555 177.542 157.438 177.021 157.438 176.391C157.438 175.464 157.763 174.781 158.414 174.344C159.065 173.901 160.042 173.656 161.344 173.609L162.859 173.562V173.18C162.859 172.721 162.74 172.385 162.5 172.172C162.26 171.958 161.927 171.852 161.5 171.852C161.078 171.852 160.664 171.911 160.258 172.031C159.852 172.151 159.445 172.302 159.039 172.484L158.25 170.875C158.714 170.63 159.232 170.438 159.805 170.297C160.383 170.156 160.979 170.086 161.594 170.086ZM162.859 174.953L161.938 174.984C161.167 175.005 160.63 175.143 160.328 175.398C160.031 175.654 159.883 175.99 159.883 176.406C159.883 176.771 159.99 177.031 160.203 177.188C160.417 177.339 160.695 177.414 161.039 177.414C161.549 177.414 161.979 177.263 162.328 176.961C162.682 176.659 162.859 176.229 162.859 175.672V174.953ZM172.648 170.102C173.581 170.102 174.331 170.357 174.898 170.867C175.466 171.372 175.75 172.185 175.75 173.305V179H173.367V173.898C173.367 173.273 173.253 172.802 173.023 172.484C172.799 172.167 172.445 172.008 171.961 172.008C171.232 172.008 170.734 172.255 170.469 172.75C170.203 173.245 170.07 173.958 170.07 174.891V179H167.688V170.266H169.508L169.828 171.383H169.961C170.148 171.081 170.38 170.836 170.656 170.648C170.938 170.461 171.247 170.323 171.586 170.234C171.93 170.146 172.284 170.102 172.648 170.102ZM180.969 179.156C179.995 179.156 179.201 178.776 178.586 178.016C177.977 177.25 177.672 176.128 177.672 174.648C177.672 173.154 177.982 172.023 178.602 171.258C179.221 170.487 180.031 170.102 181.031 170.102C181.448 170.102 181.815 170.159 182.133 170.273C182.451 170.388 182.724 170.542 182.953 170.734C183.188 170.927 183.385 171.143 183.547 171.383H183.625C183.594 171.216 183.555 170.971 183.508 170.648C183.466 170.32 183.445 169.984 183.445 169.641V166.844H185.836V179H184.008L183.547 177.867H183.445C183.294 178.107 183.104 178.326 182.875 178.523C182.651 178.716 182.383 178.87 182.07 178.984C181.758 179.099 181.391 179.156 180.969 179.156ZM181.805 177.258C182.456 177.258 182.914 177.065 183.18 176.68C183.451 176.289 183.594 175.703 183.609 174.922V174.664C183.609 173.815 183.479 173.167 183.219 172.719C182.958 172.266 182.474 172.039 181.766 172.039C181.24 172.039 180.828 172.266 180.531 172.719C180.234 173.172 180.086 173.826 180.086 174.68C180.086 175.534 180.234 176.177 180.531 176.609C180.833 177.042 181.258 177.258 181.805 177.258ZM200.5 170.266V179H198.672L198.352 177.883H198.227C198.039 178.18 197.805 178.422 197.523 178.609C197.242 178.797 196.932 178.935 196.594 179.023C196.255 179.112 195.904 179.156 195.539 179.156C194.914 179.156 194.37 179.047 193.906 178.828C193.443 178.604 193.081 178.258 192.82 177.789C192.565 177.32 192.438 176.711 192.438 175.961V170.266H194.82V175.367C194.82 175.992 194.932 176.464 195.156 176.781C195.38 177.099 195.737 177.258 196.227 177.258C196.711 177.258 197.091 177.148 197.367 176.93C197.643 176.706 197.836 176.38 197.945 175.953C198.06 175.521 198.117 174.995 198.117 174.375V170.266H200.5ZM207.961 170.102C208.893 170.102 209.643 170.357 210.211 170.867C210.779 171.372 211.062 172.185 211.062 173.305V179H208.68V173.898C208.68 173.273 208.565 172.802 208.336 172.484C208.112 172.167 207.758 172.008 207.273 172.008C206.544 172.008 206.047 172.255 205.781 172.75C205.516 173.245 205.383 173.958 205.383 174.891V179H203V170.266H204.82L205.141 171.383H205.273C205.461 171.081 205.693 170.836 205.969 170.648C206.25 170.461 206.56 170.323 206.898 170.234C207.242 170.146 207.596 170.102 207.961 170.102ZM215.898 170.266V179H213.516V170.266H215.898ZM214.711 166.844C215.065 166.844 215.37 166.927 215.625 167.094C215.88 167.255 216.008 167.56 216.008 168.008C216.008 168.451 215.88 168.758 215.625 168.93C215.37 169.096 215.065 169.18 214.711 169.18C214.352 169.18 214.044 169.096 213.789 168.93C213.539 168.758 213.414 168.451 213.414 168.008C213.414 167.56 213.539 167.255 213.789 167.094C214.044 166.927 214.352 166.844 214.711 166.844ZM223.648 182.844V179.18C223.648 178.961 223.656 178.742 223.672 178.523C223.693 178.299 223.719 178.081 223.75 177.867H223.648C223.424 178.227 223.115 178.531 222.719 178.781C222.328 179.031 221.812 179.156 221.172 179.156C220.188 179.156 219.391 178.776 218.781 178.016C218.177 177.25 217.875 176.128 217.875 174.648C217.875 173.654 218.016 172.82 218.297 172.148C218.578 171.471 218.969 170.961 219.469 170.617C219.974 170.273 220.557 170.102 221.219 170.102C221.859 170.102 222.378 170.227 222.773 170.477C223.174 170.721 223.5 171.023 223.75 171.383H223.812L224.023 170.266H226.039V182.844H223.648ZM222.023 177.289C222.461 177.289 222.807 177.203 223.062 177.031C223.323 176.859 223.51 176.602 223.625 176.258C223.74 175.909 223.802 175.474 223.812 174.953V174.664C223.812 173.815 223.682 173.167 223.422 172.719C223.161 172.266 222.682 172.039 221.984 172.039C221.417 172.039 220.995 172.266 220.719 172.719C220.443 173.172 220.305 173.826 220.305 174.68C220.305 175.549 220.445 176.203 220.727 176.641C221.008 177.073 221.44 177.289 222.023 177.289ZM236.547 170.266V179H234.719L234.398 177.883H234.273C234.086 178.18 233.852 178.422 233.57 178.609C233.289 178.797 232.979 178.935 232.641 179.023C232.302 179.112 231.951 179.156 231.586 179.156C230.961 179.156 230.417 179.047 229.953 178.828C229.49 178.604 229.128 178.258 228.867 177.789C228.612 177.32 228.484 176.711 228.484 175.961V170.266H230.867V175.367C230.867 175.992 230.979 176.464 231.203 176.781C231.427 177.099 231.784 177.258 232.273 177.258C232.758 177.258 233.138 177.148 233.414 176.93C233.69 176.706 233.883 176.38 233.992 175.953C234.107 175.521 234.164 174.995 234.164 174.375V170.266H236.547ZM242.648 170.102C243.456 170.102 244.151 170.258 244.734 170.57C245.318 170.878 245.768 171.326 246.086 171.914C246.404 172.503 246.562 173.221 246.562 174.07V175.227H240.93C240.956 175.898 241.156 176.427 241.531 176.812C241.911 177.193 242.438 177.383 243.109 177.383C243.667 177.383 244.177 177.326 244.641 177.211C245.104 177.096 245.581 176.924 246.07 176.695V178.539C245.638 178.753 245.185 178.909 244.711 179.008C244.242 179.107 243.672 179.156 243 179.156C242.125 179.156 241.349 178.995 240.672 178.672C240 178.349 239.471 177.857 239.086 177.195C238.706 176.534 238.516 175.701 238.516 174.695C238.516 173.674 238.688 172.826 239.031 172.148C239.38 171.466 239.865 170.956 240.484 170.617C241.104 170.273 241.826 170.102 242.648 170.102ZM242.664 171.797C242.201 171.797 241.815 171.945 241.508 172.242C241.206 172.539 241.031 173.005 240.984 173.641H244.328C244.323 173.286 244.258 172.971 244.133 172.695C244.013 172.419 243.831 172.201 243.586 172.039C243.346 171.878 243.039 171.797 242.664 171.797ZM259.836 179L259.164 175.945C259.128 175.763 259.068 175.495 258.984 175.141C258.901 174.781 258.81 174.398 258.711 173.992C258.617 173.581 258.529 173.201 258.445 172.852C258.367 172.503 258.31 172.247 258.273 172.086H258.203C258.167 172.247 258.109 172.503 258.031 172.852C257.953 173.201 257.865 173.581 257.766 173.992C257.672 174.404 257.583 174.792 257.5 175.156C257.417 175.516 257.354 175.789 257.312 175.977L256.609 179H254.047L251.562 170.266H253.938L254.945 174.133C255.013 174.404 255.078 174.727 255.141 175.102C255.203 175.471 255.258 175.831 255.305 176.18C255.357 176.523 255.396 176.797 255.422 177H255.484C255.495 176.849 255.516 176.648 255.547 176.398C255.583 176.148 255.622 175.891 255.664 175.625C255.711 175.354 255.753 175.112 255.789 174.898C255.831 174.68 255.862 174.531 255.883 174.453L256.961 170.266H259.586L260.609 174.453C260.646 174.604 260.693 174.844 260.75 175.172C260.812 175.5 260.867 175.839 260.914 176.188C260.961 176.531 260.987 176.802 260.992 177H261.055C261.076 176.823 261.112 176.56 261.164 176.211C261.216 175.862 261.276 175.497 261.344 175.117C261.417 174.732 261.49 174.404 261.562 174.133L262.609 170.266H264.945L262.43 179H259.836ZM274.297 174.617C274.297 175.346 274.198 175.992 274 176.555C273.807 177.117 273.523 177.594 273.148 177.984C272.779 178.37 272.331 178.661 271.805 178.859C271.284 179.057 270.695 179.156 270.039 179.156C269.424 179.156 268.859 179.057 268.344 178.859C267.833 178.661 267.388 178.37 267.008 177.984C266.633 177.594 266.341 177.117 266.133 176.555C265.93 175.992 265.828 175.346 265.828 174.617C265.828 173.648 266 172.828 266.344 172.156C266.688 171.484 267.177 170.974 267.812 170.625C268.448 170.276 269.206 170.102 270.086 170.102C270.904 170.102 271.628 170.276 272.258 170.625C272.893 170.974 273.391 171.484 273.75 172.156C274.115 172.828 274.297 173.648 274.297 174.617ZM268.258 174.617C268.258 175.19 268.32 175.672 268.445 176.062C268.57 176.453 268.766 176.747 269.031 176.945C269.297 177.143 269.643 177.242 270.07 177.242C270.492 177.242 270.833 177.143 271.094 176.945C271.359 176.747 271.552 176.453 271.672 176.062C271.797 175.672 271.859 175.19 271.859 174.617C271.859 174.039 271.797 173.56 271.672 173.18C271.552 172.794 271.359 172.505 271.094 172.312C270.828 172.12 270.482 172.023 270.055 172.023C269.424 172.023 268.966 172.24 268.68 172.672C268.398 173.104 268.258 173.753 268.258 174.617ZM281.141 170.102C281.26 170.102 281.398 170.109 281.555 170.125C281.716 170.135 281.846 170.151 281.945 170.172L281.766 172.406C281.688 172.38 281.576 172.362 281.43 172.352C281.289 172.336 281.167 172.328 281.062 172.328C280.755 172.328 280.456 172.367 280.164 172.445C279.878 172.523 279.62 172.651 279.391 172.828C279.161 173 278.979 173.229 278.844 173.516C278.714 173.797 278.648 174.143 278.648 174.555V179H276.266V170.266H278.07L278.422 171.734H278.539C278.711 171.438 278.924 171.167 279.18 170.922C279.44 170.672 279.734 170.474 280.062 170.328C280.396 170.177 280.755 170.102 281.141 170.102ZM285.914 166.844V172.281C285.914 172.609 285.901 172.938 285.875 173.266C285.849 173.594 285.82 173.922 285.789 174.25H285.82C285.982 174.021 286.146 173.794 286.312 173.57C286.484 173.346 286.667 173.13 286.859 172.922L289.305 170.266H291.992L288.523 174.055L292.203 179H289.453L286.938 175.461L285.914 176.281V179H283.531V166.844H285.914ZM301.391 174.617C301.391 175.346 301.292 175.992 301.094 176.555C300.901 177.117 300.617 177.594 300.242 177.984C299.872 178.37 299.424 178.661 298.898 178.859C298.378 179.057 297.789 179.156 297.133 179.156C296.518 179.156 295.953 179.057 295.438 178.859C294.927 178.661 294.482 178.37 294.102 177.984C293.727 177.594 293.435 177.117 293.227 176.555C293.023 175.992 292.922 175.346 292.922 174.617C292.922 173.648 293.094 172.828 293.438 172.156C293.781 171.484 294.271 170.974 294.906 170.625C295.542 170.276 296.299 170.102 297.18 170.102C297.997 170.102 298.721 170.276 299.352 170.625C299.987 170.974 300.484 171.484 300.844 172.156C301.208 172.828 301.391 173.648 301.391 174.617ZM295.352 174.617C295.352 175.19 295.414 175.672 295.539 176.062C295.664 176.453 295.859 176.747 296.125 176.945C296.391 177.143 296.737 177.242 297.164 177.242C297.586 177.242 297.927 177.143 298.188 176.945C298.453 176.747 298.646 176.453 298.766 176.062C298.891 175.672 298.953 175.19 298.953 174.617C298.953 174.039 298.891 173.56 298.766 173.18C298.646 172.794 298.453 172.505 298.188 172.312C297.922 172.12 297.576 172.023 297.148 172.023C296.518 172.023 296.06 172.24 295.773 172.672C295.492 173.104 295.352 173.753 295.352 174.617ZM311.375 170.266V179H309.547L309.227 177.883H309.102C308.914 178.18 308.68 178.422 308.398 178.609C308.117 178.797 307.807 178.935 307.469 179.023C307.13 179.112 306.779 179.156 306.414 179.156C305.789 179.156 305.245 179.047 304.781 178.828C304.318 178.604 303.956 178.258 303.695 177.789C303.44 177.32 303.312 176.711 303.312 175.961V170.266H305.695V175.367C305.695 175.992 305.807 176.464 306.031 176.781C306.255 177.099 306.612 177.258 307.102 177.258C307.586 177.258 307.966 177.148 308.242 176.93C308.518 176.706 308.711 176.38 308.82 175.953C308.935 175.521 308.992 174.995 308.992 174.375V170.266H311.375ZM317.555 177.258C317.815 177.258 318.068 177.232 318.312 177.18C318.562 177.128 318.81 177.062 319.055 176.984V178.758C318.799 178.872 318.482 178.966 318.102 179.039C317.727 179.117 317.315 179.156 316.867 179.156C316.346 179.156 315.878 179.073 315.461 178.906C315.049 178.734 314.724 178.44 314.484 178.023C314.25 177.602 314.133 177.016 314.133 176.266V172.055H312.992V171.047L314.305 170.25L314.992 168.406H316.516V170.266H318.961V172.055H316.516V176.266C316.516 176.599 316.609 176.849 316.797 177.016C316.99 177.177 317.242 177.258 317.555 177.258ZM326.922 176.406C326.922 177 326.781 177.503 326.5 177.914C326.224 178.32 325.81 178.63 325.258 178.844C324.706 179.052 324.018 179.156 323.195 179.156C322.586 179.156 322.062 179.117 321.625 179.039C321.193 178.961 320.755 178.831 320.312 178.648V176.68C320.786 176.893 321.294 177.07 321.836 177.211C322.383 177.346 322.862 177.414 323.273 177.414C323.737 177.414 324.068 177.346 324.266 177.211C324.469 177.07 324.57 176.888 324.57 176.664C324.57 176.518 324.529 176.388 324.445 176.273C324.367 176.154 324.195 176.021 323.93 175.875C323.664 175.724 323.247 175.529 322.68 175.289C322.133 175.06 321.682 174.828 321.328 174.594C320.979 174.359 320.719 174.083 320.547 173.766C320.38 173.443 320.297 173.034 320.297 172.539C320.297 171.732 320.609 171.125 321.234 170.719C321.865 170.307 322.706 170.102 323.758 170.102C324.299 170.102 324.815 170.156 325.305 170.266C325.799 170.375 326.307 170.549 326.828 170.789L326.109 172.508C325.677 172.32 325.268 172.167 324.883 172.047C324.503 171.927 324.115 171.867 323.719 171.867C323.37 171.867 323.107 171.914 322.93 172.008C322.753 172.102 322.664 172.245 322.664 172.438C322.664 172.578 322.708 172.703 322.797 172.812C322.891 172.922 323.068 173.044 323.328 173.18C323.594 173.31 323.982 173.479 324.492 173.688C324.987 173.891 325.417 174.104 325.781 174.328C326.146 174.547 326.427 174.82 326.625 175.148C326.823 175.471 326.922 175.891 326.922 176.406ZM336.867 171.453H334.734V179H333.438V171.453H331.922V170.828L333.438 170.398V169.828C333.438 169.109 333.544 168.526 333.758 168.078C333.971 167.625 334.281 167.292 334.688 167.078C335.094 166.865 335.589 166.758 336.172 166.758C336.5 166.758 336.799 166.786 337.07 166.844C337.346 166.901 337.589 166.966 337.797 167.039L337.461 168.062C337.284 168.005 337.083 167.953 336.859 167.906C336.641 167.854 336.417 167.828 336.188 167.828C335.693 167.828 335.326 167.99 335.086 168.312C334.852 168.63 334.734 169.13 334.734 169.812V170.438H336.867V171.453ZM345.828 174.703C345.828 175.406 345.737 176.034 345.555 176.586C345.372 177.138 345.109 177.604 344.766 177.984C344.422 178.365 344.005 178.656 343.516 178.859C343.031 179.057 342.482 179.156 341.867 179.156C341.294 179.156 340.768 179.057 340.289 178.859C339.815 178.656 339.404 178.365 339.055 177.984C338.711 177.604 338.443 177.138 338.25 176.586C338.062 176.034 337.969 175.406 337.969 174.703C337.969 173.766 338.128 172.969 338.445 172.312C338.763 171.651 339.216 171.148 339.805 170.805C340.398 170.456 341.104 170.281 341.922 170.281C342.703 170.281 343.385 170.456 343.969 170.805C344.557 171.154 345.013 171.659 345.336 172.32C345.664 172.977 345.828 173.771 345.828 174.703ZM339.312 174.703C339.312 175.391 339.404 175.987 339.586 176.492C339.768 176.997 340.049 177.388 340.43 177.664C340.81 177.94 341.299 178.078 341.898 178.078C342.492 178.078 342.979 177.94 343.359 177.664C343.745 177.388 344.029 176.997 344.211 176.492C344.393 175.987 344.484 175.391 344.484 174.703C344.484 174.021 344.393 173.432 344.211 172.938C344.029 172.438 343.747 172.052 343.367 171.781C342.987 171.51 342.495 171.375 341.891 171.375C341 171.375 340.346 171.669 339.93 172.258C339.518 172.846 339.312 173.661 339.312 174.703ZM351.961 170.281C352.133 170.281 352.312 170.292 352.5 170.312C352.688 170.328 352.854 170.352 353 170.383L352.836 171.586C352.695 171.549 352.539 171.521 352.367 171.5C352.195 171.479 352.034 171.469 351.883 171.469C351.539 171.469 351.214 171.539 350.906 171.68C350.604 171.815 350.339 172.013 350.109 172.273C349.88 172.529 349.701 172.839 349.57 173.203C349.44 173.562 349.375 173.964 349.375 174.406V179H348.07V170.438H349.148L349.289 172.016H349.344C349.521 171.698 349.734 171.409 349.984 171.148C350.234 170.883 350.523 170.672 350.852 170.516C351.185 170.359 351.555 170.281 351.961 170.281ZM357.422 170.438H358.812L360.703 175.406C360.812 175.698 360.914 175.979 361.008 176.25C361.102 176.516 361.185 176.771 361.258 177.016C361.331 177.26 361.388 177.497 361.43 177.727H361.484C361.557 177.466 361.661 177.125 361.797 176.703C361.932 176.276 362.078 175.841 362.234 175.398L364.023 170.438H365.422L361.695 180.258C361.497 180.784 361.266 181.242 361 181.633C360.74 182.023 360.422 182.323 360.047 182.531C359.672 182.745 359.219 182.852 358.688 182.852C358.443 182.852 358.227 182.836 358.039 182.805C357.852 182.779 357.69 182.747 357.555 182.711V181.672C357.669 181.698 357.807 181.721 357.969 181.742C358.135 181.763 358.307 181.773 358.484 181.773C358.807 181.773 359.086 181.711 359.32 181.586C359.56 181.466 359.766 181.289 359.938 181.055C360.109 180.82 360.258 180.542 360.383 180.219L360.852 179.016L357.422 170.438ZM374.172 174.703C374.172 175.406 374.081 176.034 373.898 176.586C373.716 177.138 373.453 177.604 373.109 177.984C372.766 178.365 372.349 178.656 371.859 178.859C371.375 179.057 370.826 179.156 370.211 179.156C369.638 179.156 369.112 179.057 368.633 178.859C368.159 178.656 367.747 178.365 367.398 177.984C367.055 177.604 366.786 177.138 366.594 176.586C366.406 176.034 366.312 175.406 366.312 174.703C366.312 173.766 366.471 172.969 366.789 172.312C367.107 171.651 367.56 171.148 368.148 170.805C368.742 170.456 369.448 170.281 370.266 170.281C371.047 170.281 371.729 170.456 372.312 170.805C372.901 171.154 373.357 171.659 373.68 172.32C374.008 172.977 374.172 173.771 374.172 174.703ZM367.656 174.703C367.656 175.391 367.747 175.987 367.93 176.492C368.112 176.997 368.393 177.388 368.773 177.664C369.154 177.94 369.643 178.078 370.242 178.078C370.836 178.078 371.323 177.94 371.703 177.664C372.089 177.388 372.372 176.997 372.555 176.492C372.737 175.987 372.828 175.391 372.828 174.703C372.828 174.021 372.737 173.432 372.555 172.938C372.372 172.438 372.091 172.052 371.711 171.781C371.331 171.51 370.839 171.375 370.234 171.375C369.344 171.375 368.69 171.669 368.273 172.258C367.862 172.846 367.656 173.661 367.656 174.703ZM383.484 170.438V179H382.422L382.234 177.797H382.164C381.987 178.094 381.758 178.344 381.477 178.547C381.195 178.75 380.878 178.901 380.523 179C380.174 179.104 379.802 179.156 379.406 179.156C378.729 179.156 378.161 179.047 377.703 178.828C377.245 178.609 376.898 178.271 376.664 177.812C376.435 177.354 376.32 176.766 376.32 176.047V170.438H377.633V175.953C377.633 176.667 377.794 177.201 378.117 177.555C378.44 177.904 378.932 178.078 379.594 178.078C380.229 178.078 380.734 177.958 381.109 177.719C381.49 177.479 381.763 177.128 381.93 176.664C382.096 176.195 382.18 175.622 382.18 174.945V170.438H383.484ZM386.031 178.188C386.031 177.823 386.12 177.565 386.297 177.414C386.474 177.258 386.69 177.18 386.945 177.18C387.211 177.18 387.435 177.258 387.617 177.414C387.799 177.565 387.891 177.823 387.891 178.188C387.891 178.547 387.799 178.81 387.617 178.977C387.435 179.138 387.211 179.219 386.945 179.219C386.69 179.219 386.474 179.138 386.297 178.977C386.12 178.81 386.031 178.547 386.031 178.188ZM1.5625 205V193.578H2.89062V205H1.5625ZM9.89062 196.281C10.9062 196.281 11.6745 196.531 12.1953 197.031C12.7161 197.526 12.9766 198.323 12.9766 199.422V205H11.6953V199.508C11.6953 198.794 11.5312 198.26 11.2031 197.906C10.8802 197.552 10.3828 197.375 9.71094 197.375C8.76302 197.375 8.09635 197.643 7.71094 198.18C7.32552 198.716 7.13281 199.495 7.13281 200.516V205H5.83594V196.438H6.88281L7.07812 197.672H7.14844C7.33073 197.37 7.5625 197.117 7.84375 196.914C8.125 196.706 8.4401 196.549 8.78906 196.445C9.13802 196.336 9.50521 196.281 9.89062 196.281ZM17.5312 205L14.2812 196.438H15.6719L17.5547 201.617C17.6849 201.971 17.8177 202.362 17.9531 202.789C18.0885 203.216 18.1823 203.56 18.2344 203.82H18.2891C18.3516 203.56 18.4557 203.216 18.6016 202.789C18.7474 202.357 18.8802 201.966 19 201.617L20.8828 196.438H22.2734L19.0156 205H17.5312ZM26.9453 196.281C27.6745 196.281 28.2995 196.443 28.8203 196.766C29.3411 197.089 29.7396 197.542 30.0156 198.125C30.2917 198.703 30.4297 199.38 30.4297 200.156V200.961H24.5156C24.5312 201.966 24.7812 202.732 25.2656 203.258C25.75 203.784 26.4323 204.047 27.3125 204.047C27.8542 204.047 28.3333 203.997 28.75 203.898C29.1667 203.799 29.599 203.654 30.0469 203.461V204.602C29.6146 204.794 29.1849 204.935 28.7578 205.023C28.3359 205.112 27.8359 205.156 27.2578 205.156C26.4349 205.156 25.7161 204.99 25.1016 204.656C24.4922 204.318 24.0182 203.823 23.6797 203.172C23.3411 202.521 23.1719 201.724 23.1719 200.781C23.1719 199.859 23.3255 199.062 23.6328 198.391C23.9453 197.714 24.3828 197.193 24.9453 196.828C25.513 196.464 26.1797 196.281 26.9453 196.281ZM26.9297 197.344C26.237 197.344 25.6849 197.57 25.2734 198.023C24.862 198.477 24.6172 199.109 24.5391 199.922H29.0703C29.0651 199.411 28.9844 198.964 28.8281 198.578C28.6771 198.188 28.4453 197.885 28.1328 197.672C27.8203 197.453 27.4193 197.344 26.9297 197.344ZM38.1719 202.656C38.1719 203.203 38.0339 203.664 37.7578 204.039C37.487 204.409 37.0964 204.688 36.5859 204.875C36.0807 205.062 35.4766 205.156 34.7734 205.156C34.1745 205.156 33.6562 205.109 33.2188 205.016C32.7812 204.922 32.3984 204.789 32.0703 204.617V203.422C32.4193 203.594 32.8359 203.75 33.3203 203.891C33.8047 204.031 34.2995 204.102 34.8047 204.102C35.5443 204.102 36.0807 203.982 36.4141 203.742C36.7474 203.503 36.9141 203.177 36.9141 202.766C36.9141 202.531 36.8464 202.326 36.7109 202.148C36.5807 201.966 36.3594 201.792 36.0469 201.625C35.7344 201.453 35.3021 201.266 34.75 201.062C34.2031 200.854 33.7292 200.648 33.3281 200.445C32.9323 200.237 32.625 199.984 32.4062 199.688C32.1927 199.391 32.0859 199.005 32.0859 198.531C32.0859 197.807 32.3776 197.253 32.9609 196.867C33.5495 196.477 34.3203 196.281 35.2734 196.281C35.7891 196.281 36.2708 196.333 36.7188 196.438C37.1719 196.536 37.5938 196.672 37.9844 196.844L37.5469 197.883C37.1927 197.732 36.8151 197.604 36.4141 197.5C36.013 197.396 35.6042 197.344 35.1875 197.344C34.5885 197.344 34.1276 197.443 33.8047 197.641C33.487 197.839 33.3281 198.109 33.3281 198.453C33.3281 198.719 33.401 198.938 33.5469 199.109C33.6979 199.281 33.9375 199.443 34.2656 199.594C34.5938 199.745 35.026 199.922 35.5625 200.125C36.099 200.323 36.5625 200.529 36.9531 200.742C37.3438 200.951 37.6432 201.206 37.8516 201.508C38.0651 201.805 38.1719 202.188 38.1719 202.656ZM43.0234 204.094C43.237 204.094 43.4557 204.076 43.6797 204.039C43.9036 204.003 44.0859 203.958 44.2266 203.906V204.914C44.0755 204.982 43.8646 205.039 43.5938 205.086C43.3281 205.133 43.0677 205.156 42.8125 205.156C42.3594 205.156 41.9479 205.078 41.5781 204.922C41.2083 204.76 40.9115 204.49 40.6875 204.109C40.4688 203.729 40.3594 203.203 40.3594 202.531V197.453H39.1406V196.82L40.3672 196.312L40.8828 194.453H41.6641V196.438H44.1719V197.453H41.6641V202.492C41.6641 203.029 41.7865 203.43 42.0312 203.695C42.2812 203.961 42.612 204.094 43.0234 204.094ZM51.4141 196.438V205H50.1172V196.438H51.4141ZM50.7812 193.234C50.9948 193.234 51.1771 193.305 51.3281 193.445C51.4844 193.581 51.5625 193.794 51.5625 194.086C51.5625 194.372 51.4844 194.586 51.3281 194.727C51.1771 194.867 50.9948 194.938 50.7812 194.938C50.5573 194.938 50.3698 194.867 50.2188 194.727C50.0729 194.586 50 194.372 50 194.086C50 193.794 50.0729 193.581 50.2188 193.445C50.3698 193.305 50.5573 193.234 50.7812 193.234ZM58.2188 196.281C59.2344 196.281 60.0026 196.531 60.5234 197.031C61.0443 197.526 61.3047 198.323 61.3047 199.422V205H60.0234V199.508C60.0234 198.794 59.8594 198.26 59.5312 197.906C59.2083 197.552 58.7109 197.375 58.0391 197.375C57.0911 197.375 56.4245 197.643 56.0391 198.18C55.6536 198.716 55.4609 199.495 55.4609 200.516V205H54.1641V196.438H55.2109L55.4062 197.672H55.4766C55.6589 197.37 55.8906 197.117 56.1719 196.914C56.4531 196.706 56.7682 196.549 57.1172 196.445C57.4661 196.336 57.8333 196.281 58.2188 196.281ZM66.7812 196.438H68.1719L70.0625 201.406C70.1719 201.698 70.2734 201.979 70.3672 202.25C70.4609 202.516 70.5443 202.771 70.6172 203.016C70.6901 203.26 70.7474 203.497 70.7891 203.727H70.8438C70.9167 203.466 71.0208 203.125 71.1562 202.703C71.2917 202.276 71.4375 201.841 71.5938 201.398L73.3828 196.438H74.7812L71.0547 206.258C70.8568 206.784 70.625 207.242 70.3594 207.633C70.099 208.023 69.7812 208.323 69.4062 208.531C69.0312 208.745 68.5781 208.852 68.0469 208.852C67.8021 208.852 67.5859 208.836 67.3984 208.805C67.2109 208.779 67.0495 208.747 66.9141 208.711V207.672C67.0286 207.698 67.1667 207.721 67.3281 207.742C67.4948 207.763 67.6667 207.773 67.8438 207.773C68.1667 207.773 68.4453 207.711 68.6797 207.586C68.9193 207.466 69.125 207.289 69.2969 207.055C69.4688 206.82 69.6172 206.542 69.7422 206.219L70.2109 205.016L66.7812 196.438ZM83.5312 200.703C83.5312 201.406 83.4401 202.034 83.2578 202.586C83.0755 203.138 82.8125 203.604 82.4688 203.984C82.125 204.365 81.7083 204.656 81.2188 204.859C80.7344 205.057 80.1849 205.156 79.5703 205.156C78.9974 205.156 78.4714 205.057 77.9922 204.859C77.5182 204.656 77.1068 204.365 76.7578 203.984C76.4141 203.604 76.1458 203.138 75.9531 202.586C75.7656 202.034 75.6719 201.406 75.6719 200.703C75.6719 199.766 75.8307 198.969 76.1484 198.312C76.4661 197.651 76.9193 197.148 77.5078 196.805C78.1016 196.456 78.8073 196.281 79.625 196.281C80.4062 196.281 81.0885 196.456 81.6719 196.805C82.2604 197.154 82.7161 197.659 83.0391 198.32C83.3672 198.977 83.5312 199.771 83.5312 200.703ZM77.0156 200.703C77.0156 201.391 77.1068 201.987 77.2891 202.492C77.4714 202.997 77.7526 203.388 78.1328 203.664C78.513 203.94 79.0026 204.078 79.6016 204.078C80.1953 204.078 80.6823 203.94 81.0625 203.664C81.4479 203.388 81.7318 202.997 81.9141 202.492C82.0964 201.987 82.1875 201.391 82.1875 200.703C82.1875 200.021 82.0964 199.432 81.9141 198.938C81.7318 198.438 81.4505 198.052 81.0703 197.781C80.6901 197.51 80.1979 197.375 79.5938 197.375C78.7031 197.375 78.0495 197.669 77.6328 198.258C77.2214 198.846 77.0156 199.661 77.0156 200.703ZM92.8438 196.438V205H91.7812L91.5938 203.797H91.5234C91.3464 204.094 91.1172 204.344 90.8359 204.547C90.5547 204.75 90.237 204.901 89.8828 205C89.5339 205.104 89.1615 205.156 88.7656 205.156C88.0885 205.156 87.5208 205.047 87.0625 204.828C86.6042 204.609 86.2578 204.271 86.0234 203.812C85.7943 203.354 85.6797 202.766 85.6797 202.047V196.438H86.9922V201.953C86.9922 202.667 87.1536 203.201 87.4766 203.555C87.7995 203.904 88.2917 204.078 88.9531 204.078C89.5885 204.078 90.0938 203.958 90.4688 203.719C90.849 203.479 91.1224 203.128 91.2891 202.664C91.4557 202.195 91.5391 201.622 91.5391 200.945V196.438H92.8438ZM99.4766 196.281C99.6484 196.281 99.8281 196.292 100.016 196.312C100.203 196.328 100.37 196.352 100.516 196.383L100.352 197.586C100.211 197.549 100.055 197.521 99.8828 197.5C99.7109 197.479 99.5495 197.469 99.3984 197.469C99.0547 197.469 98.7292 197.539 98.4219 197.68C98.1198 197.815 97.8542 198.013 97.625 198.273C97.3958 198.529 97.2161 198.839 97.0859 199.203C96.9557 199.562 96.8906 199.964 96.8906 200.406V205H95.5859V196.438H96.6641L96.8047 198.016H96.8594C97.0365 197.698 97.25 197.409 97.5 197.148C97.75 196.883 98.0391 196.672 98.3672 196.516C98.7005 196.359 99.0703 196.281 99.4766 196.281ZM107.586 192.844V195.883C107.586 196.232 107.576 196.57 107.555 196.898C107.539 197.227 107.526 197.482 107.516 197.664H107.586C107.82 197.279 108.159 196.953 108.602 196.688C109.044 196.422 109.609 196.289 110.297 196.289C111.37 196.289 112.224 196.661 112.859 197.406C113.5 198.146 113.82 199.247 113.82 200.711C113.82 201.674 113.674 202.487 113.383 203.148C113.091 203.81 112.68 204.31 112.148 204.648C111.617 204.987 110.99 205.156 110.266 205.156C109.589 205.156 109.031 205.031 108.594 204.781C108.161 204.526 107.828 204.216 107.594 203.852H107.492L107.227 205H106.289V192.844H107.586ZM110.086 197.375C109.466 197.375 108.974 197.497 108.609 197.742C108.245 197.982 107.982 198.346 107.82 198.836C107.664 199.32 107.586 199.935 107.586 200.68V200.75C107.586 201.828 107.766 202.654 108.125 203.227C108.484 203.794 109.138 204.078 110.086 204.078C110.883 204.078 111.479 203.786 111.875 203.203C112.276 202.62 112.477 201.786 112.477 200.703C112.477 199.599 112.279 198.768 111.883 198.211C111.492 197.654 110.893 197.375 110.086 197.375ZM123.469 200.703C123.469 201.406 123.378 202.034 123.195 202.586C123.013 203.138 122.75 203.604 122.406 203.984C122.062 204.365 121.646 204.656 121.156 204.859C120.672 205.057 120.122 205.156 119.508 205.156C118.935 205.156 118.409 205.057 117.93 204.859C117.456 204.656 117.044 204.365 116.695 203.984C116.352 203.604 116.083 203.138 115.891 202.586C115.703 202.034 115.609 201.406 115.609 200.703C115.609 199.766 115.768 198.969 116.086 198.312C116.404 197.651 116.857 197.148 117.445 196.805C118.039 196.456 118.745 196.281 119.562 196.281C120.344 196.281 121.026 196.456 121.609 196.805C122.198 197.154 122.654 197.659 122.977 198.32C123.305 198.977 123.469 199.771 123.469 200.703ZM116.953 200.703C116.953 201.391 117.044 201.987 117.227 202.492C117.409 202.997 117.69 203.388 118.07 203.664C118.451 203.94 118.94 204.078 119.539 204.078C120.133 204.078 120.62 203.94 121 203.664C121.385 203.388 121.669 202.997 121.852 202.492C122.034 201.987 122.125 201.391 122.125 200.703C122.125 200.021 122.034 199.432 121.852 198.938C121.669 198.438 121.388 198.052 121.008 197.781C120.628 197.51 120.135 197.375 119.531 197.375C118.641 197.375 117.987 197.669 117.57 198.258C117.159 198.846 116.953 199.661 116.953 200.703ZM128.758 205.156C127.674 205.156 126.815 204.786 126.18 204.047C125.549 203.307 125.234 202.208 125.234 200.75C125.234 199.276 125.557 198.164 126.203 197.414C126.849 196.659 127.708 196.281 128.781 196.281C129.234 196.281 129.63 196.341 129.969 196.461C130.307 196.581 130.599 196.742 130.844 196.945C131.089 197.143 131.294 197.37 131.461 197.625H131.555C131.534 197.464 131.513 197.242 131.492 196.961C131.471 196.68 131.461 196.451 131.461 196.273V192.844H132.758V205H131.711L131.516 203.781H131.461C131.299 204.036 131.094 204.268 130.844 204.477C130.599 204.685 130.305 204.852 129.961 204.977C129.622 205.096 129.221 205.156 128.758 205.156ZM128.961 204.078C129.878 204.078 130.526 203.818 130.906 203.297C131.286 202.776 131.477 202.003 131.477 200.977V200.742C131.477 199.654 131.294 198.818 130.93 198.234C130.57 197.651 129.914 197.359 128.961 197.359C128.164 197.359 127.568 197.667 127.172 198.281C126.776 198.891 126.578 199.724 126.578 200.781C126.578 201.833 126.773 202.646 127.164 203.219C127.56 203.792 128.159 204.078 128.961 204.078ZM134.156 196.438H135.547L137.438 201.406C137.547 201.698 137.648 201.979 137.742 202.25C137.836 202.516 137.919 202.771 137.992 203.016C138.065 203.26 138.122 203.497 138.164 203.727H138.219C138.292 203.466 138.396 203.125 138.531 202.703C138.667 202.276 138.812 201.841 138.969 201.398L140.758 196.438H142.156L138.43 206.258C138.232 206.784 138 207.242 137.734 207.633C137.474 208.023 137.156 208.323 136.781 208.531C136.406 208.745 135.953 208.852 135.422 208.852C135.177 208.852 134.961 208.836 134.773 208.805C134.586 208.779 134.424 208.747 134.289 208.711V207.672C134.404 207.698 134.542 207.721 134.703 207.742C134.87 207.763 135.042 207.773 135.219 207.773C135.542 207.773 135.82 207.711 136.055 207.586C136.294 207.466 136.5 207.289 136.672 207.055C136.844 206.82 136.992 206.542 137.117 206.219L137.586 205.016L134.156 196.438ZM150.883 196.297C151.904 196.297 152.661 196.526 153.156 196.984C153.651 197.443 153.898 198.174 153.898 199.18V205H152.953L152.703 203.734H152.641C152.401 204.047 152.151 204.31 151.891 204.523C151.63 204.732 151.328 204.891 150.984 205C150.646 205.104 150.229 205.156 149.734 205.156C149.214 205.156 148.75 205.065 148.344 204.883C147.943 204.701 147.625 204.424 147.391 204.055C147.161 203.685 147.047 203.216 147.047 202.648C147.047 201.794 147.385 201.138 148.062 200.68C148.74 200.221 149.771 199.971 151.156 199.93L152.633 199.867V199.344C152.633 198.604 152.474 198.086 152.156 197.789C151.839 197.492 151.391 197.344 150.812 197.344C150.365 197.344 149.938 197.409 149.531 197.539C149.125 197.669 148.74 197.823 148.375 198L147.977 197.016C148.362 196.818 148.805 196.648 149.305 196.508C149.805 196.367 150.331 196.297 150.883 196.297ZM152.617 200.781L151.312 200.836C150.245 200.878 149.492 201.052 149.055 201.359C148.617 201.667 148.398 202.102 148.398 202.664C148.398 203.154 148.547 203.516 148.844 203.75C149.141 203.984 149.534 204.102 150.023 204.102C150.784 204.102 151.406 203.891 151.891 203.469C152.375 203.047 152.617 202.414 152.617 201.57V200.781ZM160.625 196.281C161.641 196.281 162.409 196.531 162.93 197.031C163.451 197.526 163.711 198.323 163.711 199.422V205H162.43V199.508C162.43 198.794 162.266 198.26 161.938 197.906C161.615 197.552 161.117 197.375 160.445 197.375C159.497 197.375 158.831 197.643 158.445 198.18C158.06 198.716 157.867 199.495 157.867 200.516V205H156.57V196.438H157.617L157.812 197.672H157.883C158.065 197.37 158.297 197.117 158.578 196.914C158.859 196.706 159.174 196.549 159.523 196.445C159.872 196.336 160.24 196.281 160.625 196.281ZM169.43 205.156C168.346 205.156 167.487 204.786 166.852 204.047C166.221 203.307 165.906 202.208 165.906 200.75C165.906 199.276 166.229 198.164 166.875 197.414C167.521 196.659 168.38 196.281 169.453 196.281C169.906 196.281 170.302 196.341 170.641 196.461C170.979 196.581 171.271 196.742 171.516 196.945C171.76 197.143 171.966 197.37 172.133 197.625H172.227C172.206 197.464 172.185 197.242 172.164 196.961C172.143 196.68 172.133 196.451 172.133 196.273V192.844H173.43V205H172.383L172.188 203.781H172.133C171.971 204.036 171.766 204.268 171.516 204.477C171.271 204.685 170.977 204.852 170.633 204.977C170.294 205.096 169.893 205.156 169.43 205.156ZM169.633 204.078C170.549 204.078 171.198 203.818 171.578 203.297C171.958 202.776 172.148 202.003 172.148 200.977V200.742C172.148 199.654 171.966 198.818 171.602 198.234C171.242 197.651 170.586 197.359 169.633 197.359C168.836 197.359 168.24 197.667 167.844 198.281C167.448 198.891 167.25 199.724 167.25 200.781C167.25 201.833 167.445 202.646 167.836 203.219C168.232 203.792 168.831 204.078 169.633 204.078ZM182.773 208.844C181.555 208.844 180.622 208.63 179.977 208.203C179.336 207.781 179.016 207.188 179.016 206.422C179.016 205.896 179.18 205.456 179.508 205.102C179.836 204.747 180.318 204.495 180.953 204.344C180.708 204.24 180.495 204.07 180.312 203.836C180.13 203.596 180.039 203.344 180.039 203.078C180.039 202.745 180.135 202.469 180.328 202.25C180.521 202.026 180.799 201.807 181.164 201.594C180.706 201.396 180.341 201.078 180.07 200.641C179.805 200.203 179.672 199.688 179.672 199.094C179.672 198.458 179.81 197.919 180.086 197.477C180.367 197.029 180.773 196.688 181.305 196.453C181.841 196.219 182.492 196.102 183.258 196.102C183.419 196.102 183.607 196.112 183.82 196.133C184.034 196.154 184.229 196.177 184.406 196.203C184.589 196.229 184.711 196.25 184.773 196.266H187.82V197.477L186.453 197.828C186.578 198.021 186.672 198.227 186.734 198.445C186.797 198.664 186.828 198.896 186.828 199.141C186.828 200.078 186.5 200.81 185.844 201.336C185.193 201.857 184.286 202.117 183.125 202.117C182.849 202.102 182.589 202.081 182.344 202.055C182.224 202.148 182.133 202.247 182.07 202.352C182.008 202.456 181.977 202.565 181.977 202.68C181.977 202.794 182.023 202.891 182.117 202.969C182.216 203.042 182.362 203.099 182.555 203.141C182.753 203.177 182.997 203.195 183.289 203.195H184.773C185.732 203.195 186.461 203.401 186.961 203.812C187.466 204.224 187.719 204.828 187.719 205.625C187.719 206.646 187.292 207.438 186.438 208C185.589 208.562 184.367 208.844 182.773 208.844ZM182.875 207.289C183.443 207.289 183.93 207.234 184.336 207.125C184.747 207.021 185.062 206.87 185.281 206.672C185.5 206.479 185.609 206.247 185.609 205.977C185.609 205.758 185.544 205.583 185.414 205.453C185.289 205.328 185.096 205.24 184.836 205.188C184.581 205.135 184.253 205.109 183.852 205.109H182.617C182.326 205.109 182.062 205.156 181.828 205.25C181.599 205.344 181.417 205.474 181.281 205.641C181.146 205.812 181.078 206.01 181.078 206.234C181.078 206.562 181.234 206.82 181.547 207.008C181.865 207.195 182.307 207.289 182.875 207.289ZM183.258 200.664C183.706 200.664 184.034 200.526 184.242 200.25C184.451 199.974 184.555 199.599 184.555 199.125C184.555 198.599 184.445 198.206 184.227 197.945C184.013 197.68 183.69 197.547 183.258 197.547C182.82 197.547 182.492 197.68 182.273 197.945C182.055 198.206 181.945 198.599 181.945 199.125C181.945 199.599 182.052 199.974 182.266 200.25C182.484 200.526 182.815 200.664 183.258 200.664ZM192.867 196.102C193.674 196.102 194.37 196.258 194.953 196.57C195.536 196.878 195.987 197.326 196.305 197.914C196.622 198.503 196.781 199.221 196.781 200.07V201.227H191.148C191.174 201.898 191.375 202.427 191.75 202.812C192.13 203.193 192.656 203.383 193.328 203.383C193.885 203.383 194.396 203.326 194.859 203.211C195.323 203.096 195.799 202.924 196.289 202.695V204.539C195.857 204.753 195.404 204.909 194.93 205.008C194.461 205.107 193.891 205.156 193.219 205.156C192.344 205.156 191.568 204.995 190.891 204.672C190.219 204.349 189.69 203.857 189.305 203.195C188.924 202.534 188.734 201.701 188.734 200.695C188.734 199.674 188.906 198.826 189.25 198.148C189.599 197.466 190.083 196.956 190.703 196.617C191.323 196.273 192.044 196.102 192.867 196.102ZM192.883 197.797C192.419 197.797 192.034 197.945 191.727 198.242C191.424 198.539 191.25 199.005 191.203 199.641H194.547C194.542 199.286 194.477 198.971 194.352 198.695C194.232 198.419 194.049 198.201 193.805 198.039C193.565 197.878 193.258 197.797 192.883 197.797ZM202.398 203.258C202.659 203.258 202.911 203.232 203.156 203.18C203.406 203.128 203.654 203.062 203.898 202.984V204.758C203.643 204.872 203.326 204.966 202.945 205.039C202.57 205.117 202.159 205.156 201.711 205.156C201.19 205.156 200.721 205.073 200.305 204.906C199.893 204.734 199.568 204.44 199.328 204.023C199.094 203.602 198.977 203.016 198.977 202.266V198.055H197.836V197.047L199.148 196.25L199.836 194.406H201.359V196.266H203.805V198.055H201.359V202.266C201.359 202.599 201.453 202.849 201.641 203.016C201.833 203.177 202.086 203.258 202.398 203.258ZM220.086 196.102C221.076 196.102 221.823 196.357 222.328 196.867C222.839 197.372 223.094 198.185 223.094 199.305V205H220.703V199.898C220.703 199.273 220.596 198.802 220.383 198.484C220.169 198.167 219.839 198.008 219.391 198.008C218.76 198.008 218.312 198.234 218.047 198.688C217.781 199.135 217.648 199.779 217.648 200.617V205H215.266V199.898C215.266 199.482 215.219 199.133 215.125 198.852C215.031 198.57 214.888 198.359 214.695 198.219C214.503 198.078 214.255 198.008 213.953 198.008C213.51 198.008 213.161 198.12 212.906 198.344C212.656 198.562 212.477 198.888 212.367 199.32C212.263 199.747 212.211 200.271 212.211 200.891V205H209.828V196.266H211.648L211.969 197.383H212.102C212.279 197.081 212.5 196.836 212.766 196.648C213.036 196.461 213.333 196.323 213.656 196.234C213.979 196.146 214.307 196.102 214.641 196.102C215.281 196.102 215.823 196.206 216.266 196.414C216.714 196.622 217.057 196.945 217.297 197.383H217.508C217.768 196.935 218.135 196.609 218.609 196.406C219.089 196.203 219.581 196.102 220.086 196.102ZM233.562 196.266V205H231.734L231.414 203.883H231.289C231.102 204.18 230.867 204.422 230.586 204.609C230.305 204.797 229.995 204.935 229.656 205.023C229.318 205.112 228.966 205.156 228.602 205.156C227.977 205.156 227.432 205.047 226.969 204.828C226.505 204.604 226.143 204.258 225.883 203.789C225.628 203.32 225.5 202.711 225.5 201.961V196.266H227.883V201.367C227.883 201.992 227.995 202.464 228.219 202.781C228.443 203.099 228.799 203.258 229.289 203.258C229.773 203.258 230.154 203.148 230.43 202.93C230.706 202.706 230.898 202.38 231.008 201.953C231.122 201.521 231.18 200.995 231.18 200.375V196.266H233.562ZM239.609 205.156C238.745 205.156 238.008 205 237.398 204.688C236.789 204.37 236.326 203.88 236.008 203.219C235.69 202.557 235.531 201.711 235.531 200.68C235.531 199.612 235.711 198.742 236.07 198.07C236.435 197.393 236.938 196.896 237.578 196.578C238.224 196.26 238.971 196.102 239.82 196.102C240.424 196.102 240.945 196.161 241.383 196.281C241.826 196.396 242.211 196.534 242.539 196.695L241.836 198.539C241.461 198.388 241.112 198.266 240.789 198.172C240.466 198.073 240.143 198.023 239.82 198.023C239.404 198.023 239.057 198.122 238.781 198.32C238.505 198.513 238.299 198.805 238.164 199.195C238.029 199.586 237.961 200.076 237.961 200.664C237.961 201.242 238.034 201.721 238.18 202.102C238.326 202.482 238.536 202.766 238.812 202.953C239.089 203.135 239.424 203.227 239.82 203.227C240.315 203.227 240.755 203.161 241.141 203.031C241.526 202.896 241.901 202.708 242.266 202.469V204.508C241.901 204.737 241.518 204.901 241.117 205C240.721 205.104 240.219 205.156 239.609 205.156ZM246.68 192.844V195.32C246.68 195.753 246.664 196.164 246.633 196.555C246.607 196.945 246.586 197.221 246.57 197.383H246.695C246.883 197.081 247.104 196.836 247.359 196.648C247.62 196.461 247.906 196.323 248.219 196.234C248.531 196.146 248.867 196.102 249.227 196.102C249.857 196.102 250.406 196.214 250.875 196.438C251.344 196.656 251.708 197.003 251.969 197.477C252.229 197.945 252.359 198.555 252.359 199.305V205H249.977V199.898C249.977 199.273 249.862 198.802 249.633 198.484C249.404 198.167 249.049 198.008 248.57 198.008C248.091 198.008 247.714 198.12 247.438 198.344C247.161 198.562 246.966 198.888 246.852 199.32C246.737 199.747 246.68 200.271 246.68 200.891V205H244.297V192.844H246.68ZM269.227 196.102C270.216 196.102 270.964 196.357 271.469 196.867C271.979 197.372 272.234 198.185 272.234 199.305V205H269.844V199.898C269.844 199.273 269.737 198.802 269.523 198.484C269.31 198.167 268.979 198.008 268.531 198.008C267.901 198.008 267.453 198.234 267.188 198.688C266.922 199.135 266.789 199.779 266.789 200.617V205H264.406V199.898C264.406 199.482 264.359 199.133 264.266 198.852C264.172 198.57 264.029 198.359 263.836 198.219C263.643 198.078 263.396 198.008 263.094 198.008C262.651 198.008 262.302 198.12 262.047 198.344C261.797 198.562 261.617 198.888 261.508 199.32C261.404 199.747 261.352 200.271 261.352 200.891V205H258.969V196.266H260.789L261.109 197.383H261.242C261.419 197.081 261.641 196.836 261.906 196.648C262.177 196.461 262.474 196.323 262.797 196.234C263.12 196.146 263.448 196.102 263.781 196.102C264.422 196.102 264.964 196.206 265.406 196.414C265.854 196.622 266.198 196.945 266.438 197.383H266.648C266.909 196.935 267.276 196.609 267.75 196.406C268.229 196.203 268.721 196.102 269.227 196.102ZM282.625 200.617C282.625 201.346 282.526 201.992 282.328 202.555C282.135 203.117 281.852 203.594 281.477 203.984C281.107 204.37 280.659 204.661 280.133 204.859C279.612 205.057 279.023 205.156 278.367 205.156C277.753 205.156 277.188 205.057 276.672 204.859C276.161 204.661 275.716 204.37 275.336 203.984C274.961 203.594 274.669 203.117 274.461 202.555C274.258 201.992 274.156 201.346 274.156 200.617C274.156 199.648 274.328 198.828 274.672 198.156C275.016 197.484 275.505 196.974 276.141 196.625C276.776 196.276 277.534 196.102 278.414 196.102C279.232 196.102 279.956 196.276 280.586 196.625C281.221 196.974 281.719 197.484 282.078 198.156C282.443 198.828 282.625 199.648 282.625 200.617ZM276.586 200.617C276.586 201.19 276.648 201.672 276.773 202.062C276.898 202.453 277.094 202.747 277.359 202.945C277.625 203.143 277.971 203.242 278.398 203.242C278.82 203.242 279.161 203.143 279.422 202.945C279.688 202.747 279.88 202.453 280 202.062C280.125 201.672 280.188 201.19 280.188 200.617C280.188 200.039 280.125 199.56 280 199.18C279.88 198.794 279.688 198.505 279.422 198.312C279.156 198.12 278.81 198.023 278.383 198.023C277.753 198.023 277.294 198.24 277.008 198.672C276.727 199.104 276.586 199.753 276.586 200.617ZM289.469 196.102C289.589 196.102 289.727 196.109 289.883 196.125C290.044 196.135 290.174 196.151 290.273 196.172L290.094 198.406C290.016 198.38 289.904 198.362 289.758 198.352C289.617 198.336 289.495 198.328 289.391 198.328C289.083 198.328 288.784 198.367 288.492 198.445C288.206 198.523 287.948 198.651 287.719 198.828C287.49 199 287.307 199.229 287.172 199.516C287.042 199.797 286.977 200.143 286.977 200.555V205H284.594V196.266H286.398L286.75 197.734H286.867C287.039 197.438 287.253 197.167 287.508 196.922C287.768 196.672 288.062 196.474 288.391 196.328C288.724 196.177 289.083 196.102 289.469 196.102ZM295.461 196.102C296.268 196.102 296.964 196.258 297.547 196.57C298.13 196.878 298.581 197.326 298.898 197.914C299.216 198.503 299.375 199.221 299.375 200.07V201.227H293.742C293.768 201.898 293.969 202.427 294.344 202.812C294.724 203.193 295.25 203.383 295.922 203.383C296.479 203.383 296.99 203.326 297.453 203.211C297.917 203.096 298.393 202.924 298.883 202.695V204.539C298.451 204.753 297.997 204.909 297.523 205.008C297.055 205.107 296.484 205.156 295.812 205.156C294.938 205.156 294.161 204.995 293.484 204.672C292.812 204.349 292.284 203.857 291.898 203.195C291.518 202.534 291.328 201.701 291.328 200.695C291.328 199.674 291.5 198.826 291.844 198.148C292.193 197.466 292.677 196.956 293.297 196.617C293.917 196.273 294.638 196.102 295.461 196.102ZM295.477 197.797C295.013 197.797 294.628 197.945 294.32 198.242C294.018 198.539 293.844 199.005 293.797 199.641H297.141C297.135 199.286 297.07 198.971 296.945 198.695C296.826 198.419 296.643 198.201 296.398 198.039C296.159 197.878 295.852 197.797 295.477 197.797ZM310.328 196.102C311.312 196.102 312.107 196.484 312.711 197.25C313.32 198.016 313.625 199.138 313.625 200.617C313.625 201.607 313.482 202.44 313.195 203.117C312.909 203.789 312.513 204.297 312.008 204.641C311.503 204.984 310.922 205.156 310.266 205.156C309.844 205.156 309.482 205.104 309.18 205C308.878 204.891 308.62 204.753 308.406 204.586C308.193 204.414 308.008 204.232 307.852 204.039H307.727C307.768 204.247 307.799 204.461 307.82 204.68C307.841 204.898 307.852 205.112 307.852 205.32V208.844H305.469V196.266H307.406L307.742 197.398H307.852C308.008 197.164 308.198 196.948 308.422 196.75C308.646 196.552 308.914 196.396 309.227 196.281C309.544 196.161 309.911 196.102 310.328 196.102ZM309.562 198.008C309.146 198.008 308.815 198.094 308.57 198.266C308.326 198.438 308.146 198.695 308.031 199.039C307.922 199.383 307.862 199.818 307.852 200.344V200.602C307.852 201.164 307.904 201.641 308.008 202.031C308.117 202.422 308.297 202.719 308.547 202.922C308.802 203.125 309.151 203.227 309.594 203.227C309.958 203.227 310.258 203.125 310.492 202.922C310.727 202.719 310.901 202.422 311.016 202.031C311.135 201.635 311.195 201.154 311.195 200.586C311.195 199.732 311.062 199.089 310.797 198.656C310.531 198.224 310.12 198.008 309.562 198.008ZM319.195 196.102C320.003 196.102 320.698 196.258 321.281 196.57C321.865 196.878 322.315 197.326 322.633 197.914C322.951 198.503 323.109 199.221 323.109 200.07V201.227H317.477C317.503 201.898 317.703 202.427 318.078 202.812C318.458 203.193 318.984 203.383 319.656 203.383C320.214 203.383 320.724 203.326 321.188 203.211C321.651 203.096 322.128 202.924 322.617 202.695V204.539C322.185 204.753 321.732 204.909 321.258 205.008C320.789 205.107 320.219 205.156 319.547 205.156C318.672 205.156 317.896 204.995 317.219 204.672C316.547 204.349 316.018 203.857 315.633 203.195C315.253 202.534 315.062 201.701 315.062 200.695C315.062 199.674 315.234 198.826 315.578 198.148C315.927 197.466 316.411 196.956 317.031 196.617C317.651 196.273 318.372 196.102 319.195 196.102ZM319.211 197.797C318.747 197.797 318.362 197.945 318.055 198.242C317.753 198.539 317.578 199.005 317.531 199.641H320.875C320.87 199.286 320.805 198.971 320.68 198.695C320.56 198.419 320.378 198.201 320.133 198.039C319.893 197.878 319.586 197.797 319.211 197.797ZM329.922 196.102C330.042 196.102 330.18 196.109 330.336 196.125C330.497 196.135 330.628 196.151 330.727 196.172L330.547 198.406C330.469 198.38 330.357 198.362 330.211 198.352C330.07 198.336 329.948 198.328 329.844 198.328C329.536 198.328 329.237 198.367 328.945 198.445C328.659 198.523 328.401 198.651 328.172 198.828C327.943 199 327.76 199.229 327.625 199.516C327.495 199.797 327.43 200.143 327.43 200.555V205H325.047V196.266H326.852L327.203 197.734H327.32C327.492 197.438 327.706 197.167 327.961 196.922C328.221 196.672 328.516 196.474 328.844 196.328C329.177 196.177 329.536 196.102 329.922 196.102ZM337.141 198.055H335.078V205H332.695V198.055H331.383V196.906L332.695 196.266V195.625C332.695 194.88 332.82 194.302 333.07 193.891C333.326 193.474 333.682 193.182 334.141 193.016C334.604 192.844 335.151 192.758 335.781 192.758C336.245 192.758 336.667 192.797 337.047 192.875C337.427 192.948 337.737 193.031 337.977 193.125L337.367 194.875C337.185 194.818 336.987 194.766 336.773 194.719C336.56 194.672 336.315 194.648 336.039 194.648C335.706 194.648 335.461 194.75 335.305 194.953C335.154 195.151 335.078 195.406 335.078 195.719V196.266H337.141V198.055ZM346.453 200.617C346.453 201.346 346.354 201.992 346.156 202.555C345.964 203.117 345.68 203.594 345.305 203.984C344.935 204.37 344.487 204.661 343.961 204.859C343.44 205.057 342.852 205.156 342.195 205.156C341.581 205.156 341.016 205.057 340.5 204.859C339.99 204.661 339.544 204.37 339.164 203.984C338.789 203.594 338.497 203.117 338.289 202.555C338.086 201.992 337.984 201.346 337.984 200.617C337.984 199.648 338.156 198.828 338.5 198.156C338.844 197.484 339.333 196.974 339.969 196.625C340.604 196.276 341.362 196.102 342.242 196.102C343.06 196.102 343.784 196.276 344.414 196.625C345.049 196.974 345.547 197.484 345.906 198.156C346.271 198.828 346.453 199.648 346.453 200.617ZM340.414 200.617C340.414 201.19 340.477 201.672 340.602 202.062C340.727 202.453 340.922 202.747 341.188 202.945C341.453 203.143 341.799 203.242 342.227 203.242C342.648 203.242 342.99 203.143 343.25 202.945C343.516 202.747 343.708 202.453 343.828 202.062C343.953 201.672 344.016 201.19 344.016 200.617C344.016 200.039 343.953 199.56 343.828 199.18C343.708 198.794 343.516 198.505 343.25 198.312C342.984 198.12 342.638 198.023 342.211 198.023C341.581 198.023 341.122 198.24 340.836 198.672C340.555 199.104 340.414 199.753 340.414 200.617ZM353.297 196.102C353.417 196.102 353.555 196.109 353.711 196.125C353.872 196.135 354.003 196.151 354.102 196.172L353.922 198.406C353.844 198.38 353.732 198.362 353.586 198.352C353.445 198.336 353.323 198.328 353.219 198.328C352.911 198.328 352.612 198.367 352.32 198.445C352.034 198.523 351.776 198.651 351.547 198.828C351.318 199 351.135 199.229 351 199.516C350.87 199.797 350.805 200.143 350.805 200.555V205H348.422V196.266H350.227L350.578 197.734H350.695C350.867 197.438 351.081 197.167 351.336 196.922C351.596 196.672 351.891 196.474 352.219 196.328C352.552 196.177 352.911 196.102 353.297 196.102ZM365.945 196.102C366.935 196.102 367.682 196.357 368.188 196.867C368.698 197.372 368.953 198.185 368.953 199.305V205H366.562V199.898C366.562 199.273 366.456 198.802 366.242 198.484C366.029 198.167 365.698 198.008 365.25 198.008C364.62 198.008 364.172 198.234 363.906 198.688C363.641 199.135 363.508 199.779 363.508 200.617V205H361.125V199.898C361.125 199.482 361.078 199.133 360.984 198.852C360.891 198.57 360.747 198.359 360.555 198.219C360.362 198.078 360.115 198.008 359.812 198.008C359.37 198.008 359.021 198.12 358.766 198.344C358.516 198.562 358.336 198.888 358.227 199.32C358.122 199.747 358.07 200.271 358.07 200.891V205H355.688V196.266H357.508L357.828 197.383H357.961C358.138 197.081 358.359 196.836 358.625 196.648C358.896 196.461 359.193 196.323 359.516 196.234C359.839 196.146 360.167 196.102 360.5 196.102C361.141 196.102 361.682 196.206 362.125 196.414C362.573 196.622 362.917 196.945 363.156 197.383H363.367C363.628 196.935 363.995 196.609 364.469 196.406C364.948 196.203 365.44 196.102 365.945 196.102ZM374.984 196.086C376.156 196.086 377.055 196.341 377.68 196.852C378.305 197.362 378.617 198.138 378.617 199.18V205H376.953L376.492 203.812H376.43C376.18 204.125 375.924 204.38 375.664 204.578C375.404 204.776 375.104 204.922 374.766 205.016C374.427 205.109 374.016 205.156 373.531 205.156C373.016 205.156 372.552 205.057 372.141 204.859C371.734 204.661 371.414 204.359 371.18 203.953C370.945 203.542 370.828 203.021 370.828 202.391C370.828 201.464 371.154 200.781 371.805 200.344C372.456 199.901 373.432 199.656 374.734 199.609L376.25 199.562V199.18C376.25 198.721 376.13 198.385 375.891 198.172C375.651 197.958 375.318 197.852 374.891 197.852C374.469 197.852 374.055 197.911 373.648 198.031C373.242 198.151 372.836 198.302 372.43 198.484L371.641 196.875C372.104 196.63 372.622 196.438 373.195 196.297C373.773 196.156 374.37 196.086 374.984 196.086ZM376.25 200.953L375.328 200.984C374.557 201.005 374.021 201.143 373.719 201.398C373.422 201.654 373.273 201.99 373.273 202.406C373.273 202.771 373.38 203.031 373.594 203.188C373.807 203.339 374.086 203.414 374.43 203.414C374.94 203.414 375.37 203.263 375.719 202.961C376.073 202.659 376.25 202.229 376.25 201.672V200.953ZM386.039 196.102C386.971 196.102 387.721 196.357 388.289 196.867C388.857 197.372 389.141 198.185 389.141 199.305V205H386.758V199.898C386.758 199.273 386.643 198.802 386.414 198.484C386.19 198.167 385.836 198.008 385.352 198.008C384.622 198.008 384.125 198.255 383.859 198.75C383.594 199.245 383.461 199.958 383.461 200.891V205H381.078V196.266H382.898L383.219 197.383H383.352C383.539 197.081 383.771 196.836 384.047 196.648C384.328 196.461 384.638 196.323 384.977 196.234C385.32 196.146 385.674 196.102 386.039 196.102ZM395.141 205.156C394.276 205.156 393.539 205 392.93 204.688C392.32 204.37 391.857 203.88 391.539 203.219C391.221 202.557 391.062 201.711 391.062 200.68C391.062 199.612 391.242 198.742 391.602 198.07C391.966 197.393 392.469 196.896 393.109 196.578C393.755 196.26 394.503 196.102 395.352 196.102C395.956 196.102 396.477 196.161 396.914 196.281C397.357 196.396 397.742 196.534 398.07 196.695L397.367 198.539C396.992 198.388 396.643 198.266 396.32 198.172C395.997 198.073 395.674 198.023 395.352 198.023C394.935 198.023 394.589 198.122 394.312 198.32C394.036 198.513 393.831 198.805 393.695 199.195C393.56 199.586 393.492 200.076 393.492 200.664C393.492 201.242 393.565 201.721 393.711 202.102C393.857 202.482 394.068 202.766 394.344 202.953C394.62 203.135 394.956 203.227 395.352 203.227C395.846 203.227 396.286 203.161 396.672 203.031C397.057 202.896 397.432 202.708 397.797 202.469V204.508C397.432 204.737 397.049 204.901 396.648 205C396.253 205.104 395.75 205.156 395.141 205.156ZM403.43 196.102C404.237 196.102 404.932 196.258 405.516 196.57C406.099 196.878 406.549 197.326 406.867 197.914C407.185 198.503 407.344 199.221 407.344 200.07V201.227H401.711C401.737 201.898 401.938 202.427 402.312 202.812C402.693 203.193 403.219 203.383 403.891 203.383C404.448 203.383 404.958 203.326 405.422 203.211C405.885 203.096 406.362 202.924 406.852 202.695V204.539C406.419 204.753 405.966 204.909 405.492 205.008C405.023 205.107 404.453 205.156 403.781 205.156C402.906 205.156 402.13 204.995 401.453 204.672C400.781 204.349 400.253 203.857 399.867 203.195C399.487 202.534 399.297 201.701 399.297 200.695C399.297 199.674 399.469 198.826 399.812 198.148C400.161 197.466 400.646 196.956 401.266 196.617C401.885 196.273 402.607 196.102 403.43 196.102ZM403.445 197.797C402.982 197.797 402.596 197.945 402.289 198.242C401.987 198.539 401.812 199.005 401.766 199.641H405.109C405.104 199.286 405.039 198.971 404.914 198.695C404.794 198.419 404.612 198.201 404.367 198.039C404.128 197.878 403.82 197.797 403.445 197.797ZM4.57031 222.297C5.59115 222.297 6.34896 222.526 6.84375 222.984C7.33854 223.443 7.58594 224.174 7.58594 225.18V231H6.64062L6.39062 229.734H6.32812C6.08854 230.047 5.83854 230.31 5.57812 230.523C5.31771 230.732 5.01562 230.891 4.67188 231C4.33333 231.104 3.91667 231.156 3.42188 231.156C2.90104 231.156 2.4375 231.065 2.03125 230.883C1.63021 230.701 1.3125 230.424 1.07812 230.055C0.848958 229.685 0.734375 229.216 0.734375 228.648C0.734375 227.794 1.07292 227.138 1.75 226.68C2.42708 226.221 3.45833 225.971 4.84375 225.93L6.32031 225.867V225.344C6.32031 224.604 6.16146 224.086 5.84375 223.789C5.52604 223.492 5.07812 223.344 4.5 223.344C4.05208 223.344 3.625 223.409 3.21875 223.539C2.8125 223.669 2.42708 223.823 2.0625 224L1.66406 223.016C2.04948 222.818 2.49219 222.648 2.99219 222.508C3.49219 222.367 4.01823 222.297 4.57031 222.297ZM6.30469 226.781L5 226.836C3.93229 226.878 3.17969 227.052 2.74219 227.359C2.30469 227.667 2.08594 228.102 2.08594 228.664C2.08594 229.154 2.23438 229.516 2.53125 229.75C2.82812 229.984 3.22135 230.102 3.71094 230.102C4.47135 230.102 5.09375 229.891 5.57812 229.469C6.0625 229.047 6.30469 228.414 6.30469 227.57V226.781ZM14.3125 222.281C15.3281 222.281 16.0964 222.531 16.6172 223.031C17.138 223.526 17.3984 224.323 17.3984 225.422V231H16.1172V225.508C16.1172 224.794 15.9531 224.26 15.625 223.906C15.3021 223.552 14.8047 223.375 14.1328 223.375C13.1849 223.375 12.5182 223.643 12.1328 224.18C11.7474 224.716 11.5547 225.495 11.5547 226.516V231H10.2578V222.438H11.3047L11.5 223.672H11.5703C11.7526 223.37 11.9844 223.117 12.2656 222.914C12.5469 222.706 12.862 222.549 13.2109 222.445C13.5599 222.336 13.9271 222.281 14.3125 222.281ZM23.1172 231.156C22.0339 231.156 21.1745 230.786 20.5391 230.047C19.9089 229.307 19.5938 228.208 19.5938 226.75C19.5938 225.276 19.9167 224.164 20.5625 223.414C21.2083 222.659 22.0677 222.281 23.1406 222.281C23.5938 222.281 23.9896 222.341 24.3281 222.461C24.6667 222.581 24.9583 222.742 25.2031 222.945C25.4479 223.143 25.6536 223.37 25.8203 223.625H25.9141C25.8932 223.464 25.8724 223.242 25.8516 222.961C25.8307 222.68 25.8203 222.451 25.8203 222.273V218.844H27.1172V231H26.0703L25.875 229.781H25.8203C25.6589 230.036 25.4531 230.268 25.2031 230.477C24.9583 230.685 24.6641 230.852 24.3203 230.977C23.9818 231.096 23.5807 231.156 23.1172 231.156ZM23.3203 230.078C24.237 230.078 24.8854 229.818 25.2656 229.297C25.6458 228.776 25.8359 228.003 25.8359 226.977V226.742C25.8359 225.654 25.6536 224.818 25.2891 224.234C24.9297 223.651 24.2734 223.359 23.3203 223.359C22.5234 223.359 21.9271 223.667 21.5312 224.281C21.1354 224.891 20.9375 225.724 20.9375 226.781C20.9375 227.833 21.1328 228.646 21.5234 229.219C21.9193 229.792 22.5182 230.078 23.3203 230.078ZM39.7656 234.828V231.156C39.7656 230.953 39.7708 230.719 39.7812 230.453C39.7917 230.188 39.8099 229.958 39.8359 229.766H39.75C39.5104 230.161 39.1693 230.492 38.7266 230.758C38.2839 231.023 37.7135 231.156 37.0156 231.156C35.9688 231.156 35.1276 230.786 34.4922 230.047C33.8568 229.307 33.5391 228.203 33.5391 226.734C33.5391 225.771 33.6849 224.958 33.9766 224.297C34.2682 223.635 34.6797 223.135 35.2109 222.797C35.7474 222.453 36.3724 222.281 37.0859 222.281C37.7682 222.281 38.3255 222.417 38.7578 222.688C39.1901 222.953 39.5286 223.279 39.7734 223.664H39.8359L40.0312 222.438H41.0625V234.828H39.7656ZM37.2578 230.078C37.862 230.078 38.3464 229.966 38.7109 229.742C39.0755 229.513 39.3411 229.169 39.5078 228.711C39.6797 228.253 39.7708 227.682 39.7812 227V226.727C39.7812 225.622 39.5938 224.786 39.2188 224.219C38.8438 223.646 38.1901 223.359 37.2578 223.359C36.4557 223.359 35.8594 223.667 35.4688 224.281C35.0781 224.891 34.8828 225.719 34.8828 226.766C34.8828 227.812 35.0781 228.628 35.4688 229.211C35.8594 229.789 36.4557 230.078 37.2578 230.078ZM50.8906 222.438V231H49.8281L49.6406 229.797H49.5703C49.3932 230.094 49.1641 230.344 48.8828 230.547C48.6016 230.75 48.2839 230.901 47.9297 231C47.5807 231.104 47.2083 231.156 46.8125 231.156C46.1354 231.156 45.5677 231.047 45.1094 230.828C44.651 230.609 44.3047 230.271 44.0703 229.812C43.8411 229.354 43.7266 228.766 43.7266 228.047V222.438H45.0391V227.953C45.0391 228.667 45.2005 229.201 45.5234 229.555C45.8464 229.904 46.3385 230.078 47 230.078C47.6354 230.078 48.1406 229.958 48.5156 229.719C48.8958 229.479 49.1693 229.128 49.3359 228.664C49.5026 228.195 49.5859 227.622 49.5859 226.945V222.438H50.8906ZM56.8359 222.297C57.8568 222.297 58.6146 222.526 59.1094 222.984C59.6042 223.443 59.8516 224.174 59.8516 225.18V231H58.9062L58.6562 229.734H58.5938C58.3542 230.047 58.1042 230.31 57.8438 230.523C57.5833 230.732 57.2812 230.891 56.9375 231C56.599 231.104 56.1823 231.156 55.6875 231.156C55.1667 231.156 54.7031 231.065 54.2969 230.883C53.8958 230.701 53.5781 230.424 53.3438 230.055C53.1146 229.685 53 229.216 53 228.648C53 227.794 53.3385 227.138 54.0156 226.68C54.6927 226.221 55.724 225.971 57.1094 225.93L58.5859 225.867V225.344C58.5859 224.604 58.4271 224.086 58.1094 223.789C57.7917 223.492 57.3438 223.344 56.7656 223.344C56.3177 223.344 55.8906 223.409 55.4844 223.539C55.0781 223.669 54.6927 223.823 54.3281 224L53.9297 223.016C54.3151 222.818 54.7578 222.648 55.2578 222.508C55.7578 222.367 56.2839 222.297 56.8359 222.297ZM58.5703 226.781L57.2656 226.836C56.1979 226.878 55.4453 227.052 55.0078 227.359C54.5703 227.667 54.3516 228.102 54.3516 228.664C54.3516 229.154 54.5 229.516 54.7969 229.75C55.0938 229.984 55.487 230.102 55.9766 230.102C56.737 230.102 57.3594 229.891 57.8438 229.469C58.3281 229.047 58.5703 228.414 58.5703 227.57V226.781ZM63.8281 231H62.5234V218.844H63.8281V231ZM67.8672 222.438V231H66.5703V222.438H67.8672ZM67.2344 219.234C67.4479 219.234 67.6302 219.305 67.7812 219.445C67.9375 219.581 68.0156 219.794 68.0156 220.086C68.0156 220.372 67.9375 220.586 67.7812 220.727C67.6302 220.867 67.4479 220.938 67.2344 220.938C67.0104 220.938 66.8229 220.867 66.6719 220.727C66.526 220.586 66.4531 220.372 66.4531 220.086C66.4531 219.794 66.526 219.581 66.6719 219.445C66.8229 219.305 67.0104 219.234 67.2344 219.234ZM73.3828 230.094C73.5964 230.094 73.8151 230.076 74.0391 230.039C74.263 230.003 74.4453 229.958 74.5859 229.906V230.914C74.4349 230.982 74.224 231.039 73.9531 231.086C73.6875 231.133 73.4271 231.156 73.1719 231.156C72.7188 231.156 72.3073 231.078 71.9375 230.922C71.5677 230.76 71.2708 230.49 71.0469 230.109C70.8281 229.729 70.7188 229.203 70.7188 228.531V223.453H69.5V222.82L70.7266 222.312L71.2422 220.453H72.0234V222.438H74.5312V223.453H72.0234V228.492C72.0234 229.029 72.1458 229.43 72.3906 229.695C72.6406 229.961 72.9714 230.094 73.3828 230.094ZM74.9688 222.438H76.3594L78.25 227.406C78.3594 227.698 78.4609 227.979 78.5547 228.25C78.6484 228.516 78.7318 228.771 78.8047 229.016C78.8776 229.26 78.9349 229.497 78.9766 229.727H79.0312C79.1042 229.466 79.2083 229.125 79.3438 228.703C79.4792 228.276 79.625 227.841 79.7812 227.398L81.5703 222.438H82.9688L79.2422 232.258C79.0443 232.784 78.8125 233.242 78.5469 233.633C78.2865 234.023 77.9688 234.323 77.5938 234.531C77.2188 234.745 76.7656 234.852 76.2344 234.852C75.9896 234.852 75.7734 234.836 75.5859 234.805C75.3984 234.779 75.237 234.747 75.1016 234.711V233.672C75.2161 233.698 75.3542 233.721 75.5156 233.742C75.6823 233.763 75.8542 233.773 76.0312 233.773C76.3542 233.773 76.6328 233.711 76.8672 233.586C77.1068 233.466 77.3125 233.289 77.4844 233.055C77.6562 232.82 77.8047 232.542 77.9297 232.219L78.3984 231.016L74.9688 222.438ZM95.875 226.703C95.875 227.406 95.7839 228.034 95.6016 228.586C95.4193 229.138 95.1562 229.604 94.8125 229.984C94.4688 230.365 94.0521 230.656 93.5625 230.859C93.0781 231.057 92.5286 231.156 91.9141 231.156C91.3411 231.156 90.8151 231.057 90.3359 230.859C89.862 230.656 89.4505 230.365 89.1016 229.984C88.7578 229.604 88.4896 229.138 88.2969 228.586C88.1094 228.034 88.0156 227.406 88.0156 226.703C88.0156 225.766 88.1745 224.969 88.4922 224.312C88.8099 223.651 89.263 223.148 89.8516 222.805C90.4453 222.456 91.151 222.281 91.9688 222.281C92.75 222.281 93.4323 222.456 94.0156 222.805C94.6042 223.154 95.0599 223.659 95.3828 224.32C95.7109 224.977 95.875 225.771 95.875 226.703ZM89.3594 226.703C89.3594 227.391 89.4505 227.987 89.6328 228.492C89.8151 228.997 90.0964 229.388 90.4766 229.664C90.8568 229.94 91.3464 230.078 91.9453 230.078C92.5391 230.078 93.026 229.94 93.4062 229.664C93.7917 229.388 94.0755 228.997 94.2578 228.492C94.4401 227.987 94.5312 227.391 94.5312 226.703C94.5312 226.021 94.4401 225.432 94.2578 224.938C94.0755 224.438 93.7943 224.052 93.4141 223.781C93.0339 223.51 92.5417 223.375 91.9375 223.375C91.0469 223.375 90.3932 223.669 89.9766 224.258C89.5651 224.846 89.3594 225.661 89.3594 226.703ZM101.93 223.453H99.7969V231H98.5V223.453H96.9844V222.828L98.5 222.398V221.828C98.5 221.109 98.6068 220.526 98.8203 220.078C99.0339 219.625 99.3438 219.292 99.75 219.078C100.156 218.865 100.651 218.758 101.234 218.758C101.562 218.758 101.862 218.786 102.133 218.844C102.409 218.901 102.651 218.966 102.859 219.039L102.523 220.062C102.346 220.005 102.146 219.953 101.922 219.906C101.703 219.854 101.479 219.828 101.25 219.828C100.755 219.828 100.388 219.99 100.148 220.312C99.9141 220.63 99.7969 221.13 99.7969 221.812V222.438H101.93V223.453ZM108.969 231H107.664V218.844H108.969V231ZM113.008 222.438V231H111.711V222.438H113.008ZM112.375 219.234C112.589 219.234 112.771 219.305 112.922 219.445C113.078 219.581 113.156 219.794 113.156 220.086C113.156 220.372 113.078 220.586 112.922 220.727C112.771 220.867 112.589 220.938 112.375 220.938C112.151 220.938 111.964 220.867 111.812 220.727C111.667 220.586 111.594 220.372 111.594 220.086C111.594 219.794 111.667 219.581 111.812 219.445C111.964 219.305 112.151 219.234 112.375 219.234ZM119.57 223.453H117.438V231H116.141V223.453H114.625V222.828L116.141 222.398V221.828C116.141 221.109 116.247 220.526 116.461 220.078C116.674 219.625 116.984 219.292 117.391 219.078C117.797 218.865 118.292 218.758 118.875 218.758C119.203 218.758 119.503 218.786 119.773 218.844C120.049 218.901 120.292 218.966 120.5 219.039L120.164 220.062C119.987 220.005 119.786 219.953 119.562 219.906C119.344 219.854 119.12 219.828 118.891 219.828C118.396 219.828 118.029 219.99 117.789 220.312C117.555 220.63 117.438 221.13 117.438 221.812V222.438H119.57V223.453ZM124.445 222.281C125.174 222.281 125.799 222.443 126.32 222.766C126.841 223.089 127.24 223.542 127.516 224.125C127.792 224.703 127.93 225.38 127.93 226.156V226.961H122.016C122.031 227.966 122.281 228.732 122.766 229.258C123.25 229.784 123.932 230.047 124.812 230.047C125.354 230.047 125.833 229.997 126.25 229.898C126.667 229.799 127.099 229.654 127.547 229.461V230.602C127.115 230.794 126.685 230.935 126.258 231.023C125.836 231.112 125.336 231.156 124.758 231.156C123.935 231.156 123.216 230.99 122.602 230.656C121.992 230.318 121.518 229.823 121.18 229.172C120.841 228.521 120.672 227.724 120.672 226.781C120.672 225.859 120.826 225.062 121.133 224.391C121.445 223.714 121.883 223.193 122.445 222.828C123.013 222.464 123.68 222.281 124.445 222.281ZM124.43 223.344C123.737 223.344 123.185 223.57 122.773 224.023C122.362 224.477 122.117 225.109 122.039 225.922H126.57C126.565 225.411 126.484 224.964 126.328 224.578C126.177 224.188 125.945 223.885 125.633 223.672C125.32 223.453 124.919 223.344 124.43 223.344ZM129.938 230.188C129.938 229.823 130.026 229.565 130.203 229.414C130.38 229.258 130.596 229.18 130.852 229.18C131.117 229.18 131.341 229.258 131.523 229.414C131.706 229.565 131.797 229.823 131.797 230.188C131.797 230.547 131.706 230.81 131.523 230.977C131.341 231.138 131.117 231.219 130.852 231.219C130.596 231.219 130.38 231.138 130.203 230.977C130.026 230.81 129.938 230.547 129.938 230.188Z" fill="#7D7987"/>
</svg>
